#N canvas 429 22 911 770 10;
#X obj 30 415 float;
#X obj 90 414 + 1;
#X obj 33 461 mod 16;
#X obj 31 516 hradio 16 1 0 16 empty empty empty 0 -8 0 10 -262144
-1 -1 9;
#X obj 31 542 select 0 1 2 3 4 5 6 7 8 9 10 11 12 13 14 15;
#X obj -339 676 spigot;
#X obj -316 617 r g1s1;
#X floatatom -310 654 5 0 0 0 - - -, f 5;
#X obj -279 676 spigot;
#X floatatom -250 654 5 0 0 0 - - -, f 5;
#X obj -277 703 s gate1;
#X obj -220 677 spigot;
#X floatatom -191 655 5 0 0 0 - - -, f 5;
#X obj -218 704 s gate1;
#X obj -160 677 spigot;
#X floatatom -131 655 5 0 0 0 - - -, f 5;
#X obj -158 704 s gate1;
#X obj -256 617 r g1s2;
#X obj -197 618 r g1s3;
#X obj -137 618 r g1s4;
#X obj -91 678 spigot;
#X floatatom -62 656 5 0 0 0 - - -, f 5;
#X obj -89 705 s gate1;
#X obj -31 678 spigot;
#X floatatom -2 656 5 0 0 0 - - -, f 5;
#X obj -29 705 s gate1;
#X obj 28 679 spigot;
#X floatatom 57 657 5 0 0 0 - - -, f 5;
#X obj 30 706 s gate1;
#X obj 88 679 spigot;
#X floatatom 117 657 5 0 0 0 - - -, f 5;
#X obj 90 706 s gate1;
#X obj -68 619 r g1s5;
#X obj -8 619 r g1s6;
#X obj 51 620 r g1s7;
#X obj 111 620 r g1s8;
#X obj 148 679 spigot;
#X floatatom 177 657 5 0 0 0 - - -, f 5;
#X obj 150 706 s gate1;
#X obj 208 679 spigot;
#X floatatom 237 657 5 0 0 0 - - -, f 5;
#X obj 210 706 s gate1;
#X obj 267 680 spigot;
#X floatatom 296 658 5 0 0 0 - - -, f 5;
#X obj 269 707 s gate1;
#X obj 327 680 spigot;
#X floatatom 356 658 5 0 0 0 - - -, f 5;
#X obj 329 707 s gate1;
#X obj 396 681 spigot;
#X floatatom 425 659 5 0 0 0 - - -, f 5;
#X obj 398 708 s gate1;
#X obj 456 681 spigot;
#X floatatom 485 659 5 0 0 0 - - -, f 5;
#X obj 458 708 s gate1;
#X obj 535 682 spigot;
#X floatatom 564 660 5 0 0 0 - - -, f 5;
#X obj 537 709 s gate1;
#X obj 634 682 spigot;
#X floatatom 663 660 5 0 0 0 - - -, f 5;
#X obj 636 709 s gate1;
#X obj 171 620 r g1s9;
#X obj 231 620 r g1s10;
#X obj 290 621 r g1s11;
#X obj 350 621 r g1s12;
#X obj 419 622 r g1s13;
#X obj 479 622 r g1s14;
#X obj 573 623 r g1s15;
#X obj 657 623 r g1s16;
#X text -44 385 reset;
#X floatatom 32 492 5 0 0 0 - - -, f 5;
#X floatatom 129 414 5 1 16 0 - - -, f 5;
#X text 163 412 length;
#X obj 1177 1463 dac~;
#X obj 1119 722 *~;
#X obj 1134 663 r eg1;
#X obj -98 528 send toGUI;
#X floatatom -97 460 5 0 0 0 - - -, f 5;
#X msg -97 502 list /seq1/step \$1;
#X obj -62 314 r list1;
#X obj -60 339 route /seq1/reset;
#X obj -341 -49 send toGUI;
#X msg -441 -207 connect localhost 3000;
#X msg -341 -157 send bang;
#X msg -348 -127 disconnect;
#X msg -352 -184 connect 10.0.0.8 3001;
#X obj -441 -87 netsend;
#X obj -345 -77 netreceive 3001;
#X obj -434 520 send toGUI;
#X msg -446 402 list /clock1 \$1 0 1;
#X msg -421 442 list /clock1 \$1 0 0;
#X floatatom -437 365 5 0 0 0 - - -, f 5;
#X obj 71 491 s seq1step;
#X obj -431 339 r seq1step;
#X obj -297 388 - 1;
#X floatatom -299 411 5 0 0 0 - - -, f 5;
#X obj -288 442 sel -1;
#X msg -409 475 list /clock1 15 0 0;
#N canvas 315 351 1269 562 seq1_toggles 0;
#X obj 561 -265 s g1s1;
#X obj 566 -287 tgl 15 0 empty empty empty 17 7 0 10 -262144 -1 -1
0 1;
#X obj 674 -290 tgl 15 0 empty empty empty 17 7 0 10 -262144 -1 -1
0 1;
#X obj 673 -266 s g1s2;
#X obj 777 -301 tgl 15 0 empty empty empty 17 7 0 10 -262144 -1 -1
0 1;
#X obj 871 -299 tgl 15 0 empty empty empty 17 7 0 10 -262144 -1 -1
0 1;
#X obj 775 -273 s g1s3;
#X obj 869 -271 s g1s4;
#X obj 623 -128 tgl 15 0 empty empty empty 17 7 0 10 -262144 -1 -1
0 1;
#X obj 672 -128 tgl 15 0 empty empty empty 17 7 0 10 -262144 -1 -1
0 1;
#X obj 727 -128 tgl 15 0 empty empty empty 17 7 0 10 -262144 -1 -1
0 1;
#X obj 775 -128 tgl 15 0 empty empty empty 17 7 0 10 -262144 -1 -1
0 1;
#X obj 621 -100 s g1s5;
#X obj 670 -100 s g1s6;
#X obj 725 -100 s g1s7;
#X obj 773 -100 s g1s8;
#X obj 641 38 tgl 15 0 empty empty empty 17 7 0 10 -262144 -1 -1 0
1;
#X obj 690 38 tgl 15 0 empty empty empty 17 7 0 10 -262144 -1 -1 0
1;
#X obj 745 38 tgl 15 0 empty empty empty 17 7 0 10 -262144 -1 -1 0
1;
#X obj 793 38 tgl 15 0 empty empty empty 17 7 0 10 -262144 -1 -1 0
1;
#X obj 638 235 tgl 15 0 empty empty empty 17 7 0 10 -262144 -1 -1 0
1;
#X obj 687 235 tgl 15 0 empty empty empty 17 7 0 10 -262144 -1 -1 0
1;
#X obj 742 235 tgl 15 0 empty empty empty 17 7 0 10 -262144 -1 -1 0
1;
#X obj 844 236 tgl 15 0 empty empty empty 17 7 0 10 -262144 -1 -1 0
1;
#X obj 639 66 s g1s9;
#X obj 688 66 s g1s10;
#X obj 743 66 s g1s11;
#X obj 791 66 s g1s12;
#X obj 636 263 s g1s13;
#X obj 685 263 s g1s14;
#X obj 740 263 s g1s15;
#X obj 842 264 s g1s16;
#X obj 556 -391 r list1;
#X obj 565 -367 route /seq1;
#X obj 563 -341 route 0;
#X obj 563 -313 route 0;
#X obj 665 -395 r list1;
#X obj 674 -371 route /seq1;
#X obj 672 -345 route 1;
#X obj 672 -317 route 0;
#X obj 776 -409 r list1;
#X obj 785 -385 route /seq1;
#X obj 783 -331 route 0;
#X obj 783 -359 route 2;
#X obj 869 -406 r list1;
#X obj 878 -382 route /seq1;
#X obj 876 -328 route 0;
#X obj 876 -356 route 3;
#X obj 570 -232 r list1;
#X obj 579 -208 route /seq1;
#X obj 577 -154 route 0;
#X obj 577 -182 route 4;
#X obj 662 -233 r list1;
#X obj 671 -209 route /seq1;
#X obj 669 -155 route 0;
#X obj 669 -183 route 5;
#X obj 750 -237 r list1;
#X obj 759 -213 route /seq1;
#X obj 757 -159 route 0;
#X obj 757 -187 route 6;
#X obj 840 -234 r list1;
#X obj 849 -210 route /seq1;
#X obj 847 -156 route 0;
#X obj 847 -184 route 7;
#X obj 567 -68 r list1;
#X obj 576 -44 route /seq1;
#X obj 574 10 route 0;
#X obj 574 -18 route 8;
#X obj 651 -68 r list1;
#X obj 660 -44 route /seq1;
#X obj 658 10 route 0;
#X obj 658 -18 route 9;
#X obj 731 -72 r list1;
#X obj 740 -48 route /seq1;
#X obj 738 6 route 0;
#X obj 738 -22 route 10;
#X obj 846 -68 r list1;
#X obj 855 -44 route /seq1;
#X obj 853 10 route 0;
#X obj 853 -18 route 11;
#X obj 573 103 r list1;
#X obj 582 127 route /seq1;
#X obj 580 181 route 0;
#X obj 580 153 route 12;
#X obj 657 102 r list1;
#X obj 666 126 route /seq1;
#X obj 664 180 route 0;
#X obj 664 152 route 13;
#X obj 744 103 r list1;
#X obj 753 127 route /seq1;
#X obj 751 181 route 0;
#X obj 751 153 route 14;
#X obj 832 104 r list1;
#X obj 841 128 route /seq1;
#X obj 839 182 route 0;
#X obj 839 154 route 15;
#X connect 1 0 0 0;
#X connect 2 0 3 0;
#X connect 4 0 6 0;
#X connect 5 0 7 0;
#X connect 8 0 12 0;
#X connect 9 0 13 0;
#X connect 10 0 14 0;
#X connect 11 0 15 0;
#X connect 16 0 24 0;
#X connect 17 0 25 0;
#X connect 18 0 26 0;
#X connect 19 0 27 0;
#X connect 20 0 28 0;
#X connect 21 0 29 0;
#X connect 22 0 30 0;
#X connect 23 0 31 0;
#X connect 32 0 33 0;
#X connect 33 0 34 0;
#X connect 34 0 35 0;
#X connect 35 0 1 0;
#X connect 36 0 37 0;
#X connect 37 0 38 0;
#X connect 38 0 39 0;
#X connect 39 0 2 0;
#X connect 40 0 41 0;
#X connect 41 0 43 0;
#X connect 42 0 4 0;
#X connect 43 0 42 0;
#X connect 44 0 45 0;
#X connect 45 0 47 0;
#X connect 46 0 5 0;
#X connect 47 0 46 0;
#X connect 48 0 49 0;
#X connect 49 0 51 0;
#X connect 50 0 8 0;
#X connect 51 0 50 0;
#X connect 52 0 53 0;
#X connect 53 0 55 0;
#X connect 54 0 9 0;
#X connect 55 0 54 0;
#X connect 56 0 57 0;
#X connect 57 0 59 0;
#X connect 58 0 10 0;
#X connect 59 0 58 0;
#X connect 60 0 61 0;
#X connect 61 0 63 0;
#X connect 62 0 11 0;
#X connect 63 0 62 0;
#X connect 64 0 65 0;
#X connect 65 0 67 0;
#X connect 66 0 16 0;
#X connect 67 0 66 0;
#X connect 68 0 69 0;
#X connect 69 0 71 0;
#X connect 70 0 17 0;
#X connect 71 0 70 0;
#X connect 72 0 73 0;
#X connect 73 0 75 0;
#X connect 74 0 18 0;
#X connect 75 0 74 0;
#X connect 76 0 77 0;
#X connect 77 0 79 0;
#X connect 78 0 19 0;
#X connect 79 0 78 0;
#X connect 80 0 81 0;
#X connect 81 0 83 0;
#X connect 82 0 20 0;
#X connect 83 0 82 0;
#X connect 84 0 85 0;
#X connect 85 0 87 0;
#X connect 86 0 21 0;
#X connect 87 0 86 0;
#X connect 88 0 89 0;
#X connect 89 0 91 0;
#X connect 90 0 22 0;
#X connect 91 0 90 0;
#X connect 92 0 93 0;
#X connect 93 0 95 0;
#X connect 94 0 23 0;
#X connect 95 0 94 0;
#X restore -458 619 pd seq1_toggles;
#X obj 1117 634 r~ noise;
#N canvas 328 22 1095 769 noise 0;
#X obj 231 428 line;
#X floatatom 231 456 5 0 0 0 - - -, f 5;
#X obj 235 175 bng 15 250 50 0 empty empty empty 17 7 0 10 -262144
-1 -1;
#X msg 238 390 0 \$1;
#X obj 146 189 bng 15 250 50 0 empty empty empty 17 7 0 10 -262144
-1 -1;
#X msg 152 340 1 \$1;
#X text 152 160 attack;
#X text 309 168 decay;
#X obj 232 479 sel 1;
#X obj 304 516 bng 15 250 50 0 empty empty empty 17 7 0 10 -262144
-1 -1;
#X floatatom 246 364 5 0 0 0 - - -, f 5;
#X floatatom 151 314 5 0 0 0 - - -, f 5;
#X obj 209 548 s eg1;
#X obj 137 119 r gate1;
#X obj 18 137 route /1/attack;
#X obj 23 103 r list1;
#X obj 294 113 r list1;
#X obj 289 147 route /1/decay;
#X floatatom 273 235 5 0 0 0 - - -, f 5;
#X msg 143 250 0;
#X obj 267 293 + 1;
#X obj 369 328 noise~;
#X obj 536 609 s~ noise;
#X text 384 286 GENERATION;
#X text 204 85 ENVELOPE;
#X obj 465 144 loadbang;
#X msg 337 196 40;
#X obj 676 216 r list1;
#X obj 669 459 bp~ 220 1;
#X text 735 453 bandpass filter;
#X obj 678 245 route /noise/bandpass_center;
#X obj 737 286 r list1;
#X obj 739 315 route /noise/bandpass_resonance;
#X obj 679 319 * 16000;
#X obj 738 358 * 50;
#X obj 273 261 * 1500;
#N canvas 550 22 1122 718 diginoise 0;
#N canvas 658 228 508 440 square 0;
#X obj 193 158 phasor~ 200;
#X obj 198 203 expr~ $v1 > 0.5;
#X text 212 181 square wave;
#X obj 152 26 inlet;
#X obj 205 252 outlet~;
#X obj 149 67 +~;
#X text 120 27 fq;
#X text 398 20 fm, f 1;
#X obj 255 26 inlet~, f 22;
#X connect 0 0 1 0;
#X connect 1 0 4 0;
#X connect 3 0 5 0;
#X connect 5 0 0 0;
#X connect 8 0 5 1;
#X restore 159 347 pd square;
#X obj 159 206 vsl 15 128 2 20000 0 0 empty empty empty 0 -9 0 10 -262144
-1 -1 6337 1;
#N canvas 658 228 508 440 square 0;
#X obj 193 158 phasor~ 200;
#X obj 198 203 expr~ $v1 > 0.5;
#X text 212 181 square wave;
#X obj 152 26 inlet;
#X obj 205 252 outlet~;
#X obj 149 67 +~;
#X text 120 27 fq;
#X text 398 20 fm, f 1;
#X obj 255 26 inlet~, f 22;
#X connect 0 0 1 0;
#X connect 1 0 4 0;
#X connect 3 0 5 0;
#X connect 5 0 0 0;
#X connect 8 0 5 1;
#X restore 227 348 pd square;
#X obj 229 212 vsl 15 128 2 20000 0 0 empty empty empty 0 -9 0 10 -262144
-1 -1 4753 1;
#X obj 212 388 *~;
#N canvas 658 228 508 440 square 0;
#X obj 193 158 phasor~ 200;
#X obj 198 203 expr~ $v1 > 0.5;
#X text 212 181 square wave;
#X obj 152 26 inlet;
#X obj 205 252 outlet~;
#X obj 149 67 +~;
#X text 120 27 fq;
#X text 398 20 fm, f 1;
#X obj 255 26 inlet~, f 22;
#X connect 0 0 1 0;
#X connect 1 0 4 0;
#X connect 3 0 5 0;
#X connect 5 0 0 0;
#X connect 8 0 5 1;
#X restore 303 349 pd square;
#X obj 303 208 vsl 15 128 2 20000 0 0 empty empty empty 0 -9 0 10 -262144
-1 -1 2852 1;
#N canvas 658 228 508 440 square 0;
#X obj 193 158 phasor~ 200;
#X obj 198 203 expr~ $v1 > 0.5;
#X text 212 181 square wave;
#X obj 152 26 inlet;
#X obj 205 252 outlet~;
#X obj 149 67 +~;
#X text 120 27 fq;
#X text 398 20 fm, f 1;
#X obj 255 26 inlet~, f 22;
#X connect 0 0 1 0;
#X connect 1 0 4 0;
#X connect 3 0 5 0;
#X connect 5 0 0 0;
#X connect 8 0 5 1;
#X restore 371 350 pd square;
#X obj 373 214 vsl 15 128 2 20000 0 0 empty empty empty 0 -9 0 10 -262144
-1 -1 2695 1;
#X obj 356 390 *~;
#X obj 296 436 *~;
#X obj 294 62 inlet;
#X text 340 59 timbre;
#X floatatom 280 98 5 0 0 0 - - -, f 5;
#X obj 159 164 + 2;
#X obj 239 170 + 2;
#X obj 396 135 * 9000;
#X obj 324 132 * 14000;
#X obj 315 171 + 1000;
#X obj 395 177 + 2000;
#X obj 168 125 * 40000;
#X obj 240 128 * 30000;
#X obj 314 491 outlet~;
#X connect 0 0 4 0;
#X connect 1 0 0 0;
#X connect 2 0 4 1;
#X connect 3 0 2 0;
#X connect 4 0 10 0;
#X connect 5 0 9 0;
#X connect 6 0 5 0;
#X connect 7 0 9 1;
#X connect 8 0 7 0;
#X connect 9 0 10 1;
#X connect 10 0 22 0;
#X connect 11 0 13 0;
#X connect 13 0 16 0;
#X connect 13 0 17 0;
#X connect 13 0 20 0;
#X connect 13 0 21 0;
#X connect 14 0 1 0;
#X connect 15 0 3 0;
#X connect 16 0 19 0;
#X connect 17 0 18 0;
#X connect 18 0 6 0;
#X connect 19 0 8 0;
#X connect 20 0 14 0;
#X connect 21 0 15 0;
#X restore 414 328 pd diginoise;
#X obj 479 208 r list1;
#X obj 483 248 route /noise/timbre;
#X obj 535 339 route /noise_type;
#X floatatom 539 364 5 0 0 0 - - -, f 5;
#X obj 371 438 *~;
#X obj 539 385 sel 0;
#X msg 535 411 1;
#X msg 571 412 0;
#X obj 543 450 sel 1;
#X obj 423 494 *~;
#X msg 534 473 1;
#X msg 566 497 0;
#X obj 432 528 *~ 2;
#X connect 0 0 1 0;
#X connect 1 0 8 0;
#X connect 1 0 12 0;
#X connect 2 0 18 0;
#X connect 3 0 0 0;
#X connect 4 0 19 0;
#X connect 5 0 0 0;
#X connect 8 0 9 0;
#X connect 9 0 2 0;
#X connect 10 0 3 0;
#X connect 11 0 5 0;
#X connect 13 0 4 0;
#X connect 15 0 14 0;
#X connect 16 0 17 0;
#X connect 17 0 18 0;
#X connect 18 0 35 0;
#X connect 19 0 11 0;
#X connect 20 0 10 0;
#X connect 21 0 41 0;
#X connect 25 0 26 0;
#X connect 26 0 18 0;
#X connect 27 0 30 0;
#X connect 28 0 22 0;
#X connect 30 0 33 0;
#X connect 31 0 32 0;
#X connect 32 0 34 0;
#X connect 33 0 28 1;
#X connect 34 0 28 2;
#X connect 35 0 20 0;
#X connect 36 0 46 0;
#X connect 37 0 38 0;
#X connect 37 0 39 0;
#X connect 38 0 36 0;
#X connect 39 0 40 0;
#X connect 40 0 42 0;
#X connect 40 0 45 0;
#X connect 41 0 28 0;
#X connect 42 0 43 0;
#X connect 42 1 44 0;
#X connect 43 0 41 1;
#X connect 44 0 41 1;
#X connect 45 0 47 0;
#X connect 45 1 48 0;
#X connect 46 0 49 0;
#X connect 47 0 46 1;
#X connect 48 0 46 1;
#X connect 49 0 28 0;
#X restore 1087 183 pd noise;
#X obj 64 374 r clock;
#X text 1176 380 MIXING;
#X text -438 -226 NETWORK STUFF;
#N canvas 122 22 1440 761 seq2_toggles 0;
#X obj 566 -287 tgl 15 0 empty empty empty 17 7 0 10 -262144 -1 -1
0 1;
#X obj 674 -290 tgl 15 0 empty empty empty 17 7 0 10 -262144 -1 -1
0 1;
#X obj 777 -301 tgl 15 0 empty empty empty 17 7 0 10 -262144 -1 -1
0 1;
#X obj 871 -299 tgl 15 0 empty empty empty 17 7 0 10 -262144 -1 -1
0 1;
#X obj 623 -128 tgl 15 0 empty empty empty 17 7 0 10 -262144 -1 -1
0 1;
#X obj 672 -128 tgl 15 0 empty empty empty 17 7 0 10 -262144 -1 -1
0 1;
#X obj 727 -128 tgl 15 0 empty empty empty 17 7 0 10 -262144 -1 -1
0 1;
#X obj 775 -128 tgl 15 0 empty empty empty 17 7 0 10 -262144 -1 -1
0 1;
#X obj 641 38 tgl 15 0 empty empty empty 17 7 0 10 -262144 -1 -1 0
1;
#X obj 690 38 tgl 15 0 empty empty empty 17 7 0 10 -262144 -1 -1 0
1;
#X obj 745 38 tgl 15 0 empty empty empty 17 7 0 10 -262144 -1 -1 0
1;
#X obj 793 38 tgl 15 0 empty empty empty 17 7 0 10 -262144 -1 -1 0
1;
#X obj 638 235 tgl 15 0 empty empty empty 17 7 0 10 -262144 -1 -1 0
1;
#X obj 687 235 tgl 15 0 empty empty empty 17 7 0 10 -262144 -1 -1 0
1;
#X obj 742 235 tgl 15 0 empty empty empty 17 7 0 10 -262144 -1 -1 0
1;
#X obj 844 236 tgl 15 0 empty empty empty 17 7 0 10 -262144 -1 -1 0
1;
#X obj 556 -391 r list1;
#X obj 563 -341 route 0;
#X obj 563 -313 route 0;
#X obj 665 -395 r list1;
#X obj 672 -345 route 1;
#X obj 672 -317 route 0;
#X obj 776 -409 r list1;
#X obj 783 -331 route 0;
#X obj 783 -359 route 2;
#X obj 869 -406 r list1;
#X obj 876 -328 route 0;
#X obj 876 -356 route 3;
#X obj 570 -232 r list1;
#X obj 577 -154 route 0;
#X obj 577 -182 route 4;
#X obj 662 -233 r list1;
#X obj 669 -155 route 0;
#X obj 669 -183 route 5;
#X obj 750 -237 r list1;
#X obj 757 -159 route 0;
#X obj 757 -187 route 6;
#X obj 840 -234 r list1;
#X obj 847 -156 route 0;
#X obj 847 -184 route 7;
#X obj 567 -68 r list1;
#X obj 574 10 route 0;
#X obj 574 -18 route 8;
#X obj 651 -68 r list1;
#X obj 658 10 route 0;
#X obj 658 -18 route 9;
#X obj 731 -72 r list1;
#X obj 738 6 route 0;
#X obj 738 -22 route 10;
#X obj 846 -68 r list1;
#X obj 853 10 route 0;
#X obj 853 -18 route 11;
#X obj 573 103 r list1;
#X obj 580 181 route 0;
#X obj 580 153 route 12;
#X obj 657 102 r list1;
#X obj 664 180 route 0;
#X obj 664 152 route 13;
#X obj 744 103 r list1;
#X obj 751 181 route 0;
#X obj 751 153 route 14;
#X obj 832 104 r list1;
#X obj 839 182 route 0;
#X obj 839 154 route 15;
#X obj 561 -265 s g2s1;
#X obj 673 -266 s g2s2;
#X obj 775 -273 s g2s3;
#X obj 869 -271 s g2s4;
#X obj 621 -100 s g2s5;
#X obj 670 -100 s g2s6;
#X obj 725 -100 s g2s7;
#X obj 773 -100 s g2s8;
#X obj 639 66 s g2s9;
#X obj 688 66 s g2s10;
#X obj 743 66 s g2s11;
#X obj 791 66 s g2s12;
#X obj 636 263 s g2s13;
#X obj 685 263 s g2s14;
#X obj 740 263 s g2s15;
#X obj 831 266 s g2s16;
#X obj 565 -367 route /seq2;
#X obj 674 -371 route /seq2;
#X obj 785 -385 route /seq2;
#X obj 878 -382 route /seq2;
#X obj 579 -208 route /seq2;
#X obj 671 -209 route /seq2;
#X obj 759 -213 route /seq2;
#X obj 849 -210 route /seq2;
#X obj 576 -44 route /seq2;
#X obj 660 -44 route /seq2;
#X obj 740 -48 route /seq2;
#X obj 855 -44 route /seq2;
#X obj 582 127 route /seq2;
#X obj 666 126 route /seq2;
#X obj 753 127 route /seq2;
#X obj 841 128 route /seq2;
#X connect 0 0 64 0;
#X connect 1 0 65 0;
#X connect 2 0 66 0;
#X connect 3 0 67 0;
#X connect 4 0 68 0;
#X connect 5 0 69 0;
#X connect 6 0 70 0;
#X connect 7 0 71 0;
#X connect 8 0 72 0;
#X connect 9 0 73 0;
#X connect 10 0 74 0;
#X connect 11 0 75 0;
#X connect 12 0 76 0;
#X connect 13 0 77 0;
#X connect 14 0 78 0;
#X connect 15 0 79 0;
#X connect 16 0 80 0;
#X connect 17 0 18 0;
#X connect 18 0 0 0;
#X connect 19 0 81 0;
#X connect 20 0 21 0;
#X connect 21 0 1 0;
#X connect 22 0 82 0;
#X connect 23 0 2 0;
#X connect 24 0 23 0;
#X connect 25 0 83 0;
#X connect 26 0 3 0;
#X connect 27 0 26 0;
#X connect 28 0 84 0;
#X connect 29 0 4 0;
#X connect 30 0 29 0;
#X connect 31 0 85 0;
#X connect 32 0 5 0;
#X connect 33 0 32 0;
#X connect 34 0 86 0;
#X connect 35 0 6 0;
#X connect 36 0 35 0;
#X connect 37 0 87 0;
#X connect 38 0 7 0;
#X connect 39 0 38 0;
#X connect 40 0 88 0;
#X connect 41 0 8 0;
#X connect 42 0 41 0;
#X connect 43 0 89 0;
#X connect 44 0 9 0;
#X connect 45 0 44 0;
#X connect 46 0 90 0;
#X connect 47 0 10 0;
#X connect 48 0 47 0;
#X connect 49 0 91 0;
#X connect 50 0 11 0;
#X connect 51 0 50 0;
#X connect 52 0 92 0;
#X connect 53 0 12 0;
#X connect 54 0 53 0;
#X connect 55 0 93 0;
#X connect 56 0 13 0;
#X connect 57 0 56 0;
#X connect 58 0 94 0;
#X connect 59 0 14 0;
#X connect 60 0 59 0;
#X connect 61 0 95 0;
#X connect 62 0 15 0;
#X connect 63 0 62 0;
#X connect 80 0 17 0;
#X connect 81 0 20 0;
#X connect 82 0 24 0;
#X connect 83 0 27 0;
#X connect 84 0 30 0;
#X connect 85 0 33 0;
#X connect 86 0 36 0;
#X connect 87 0 39 0;
#X connect 88 0 42 0;
#X connect 89 0 45 0;
#X connect 90 0 48 0;
#X connect 91 0 51 0;
#X connect 92 0 54 0;
#X connect 93 0 57 0;
#X connect 94 0 60 0;
#X connect 95 0 63 0;
#X restore -457 777 pd seq2_toggles;
#X obj 1078 771 *~;
#X obj 1034 622 vsl 15 128 0 1 0 0 empty empty noise_lev 0 -9 0 10
-262144 -1 -1 12700 1;
#X obj 1294 720 *~;
#X obj 1289 773 *~;
#X obj 1269 621 vsl 15 128 0 1 0 0 empty empty sine_lev 0 -9 0 10 -262144
-1 -1 4262 1;
#X obj 1292 632 r~ sine;
#X obj 1309 661 r eg2;
#X obj -336 828 spigot;
#X floatatom -307 806 5 0 0 0 - - -, f 5;
#X obj -276 828 spigot;
#X floatatom -247 806 5 0 0 0 - - -, f 5;
#X obj -217 829 spigot;
#X floatatom -188 807 5 0 0 0 - - -, f 5;
#X obj -157 829 spigot;
#X floatatom -128 807 5 0 0 0 - - -, f 5;
#X obj -88 830 spigot;
#X floatatom -59 808 5 0 0 0 - - -, f 5;
#X obj -28 830 spigot;
#X floatatom 1 808 5 0 0 0 - - -, f 5;
#X obj 31 831 spigot;
#X floatatom 60 809 5 0 0 0 - - -, f 5;
#X obj 91 831 spigot;
#X floatatom 120 809 5 0 0 0 - - -, f 5;
#X obj 151 831 spigot;
#X floatatom 180 809 5 0 0 0 - - -, f 5;
#X obj 211 831 spigot;
#X floatatom 240 809 5 0 0 0 - - -, f 5;
#X obj 270 832 spigot;
#X floatatom 299 810 5 0 0 0 - - -, f 5;
#X obj 330 832 spigot;
#X floatatom 359 810 5 0 0 0 - - -, f 5;
#X obj 399 833 spigot;
#X floatatom 428 811 5 0 0 0 - - -, f 5;
#X obj 459 833 spigot;
#X floatatom 488 811 5 0 0 0 - - -, f 5;
#X obj 538 834 spigot;
#X floatatom 567 812 5 0 0 0 - - -, f 5;
#X obj 637 834 spigot;
#X floatatom 666 812 5 0 0 0 - - -, f 5;
#X text -462 596 SEQ1: NOISE;
#X obj -313 769 r g2s1;
#X obj -253 769 r g2s2;
#X obj -194 770 r g2s3;
#X obj -134 770 r g2s4;
#X obj -65 771 r g2s5;
#X obj -5 771 r g2s6;
#X obj 54 772 r g2s7;
#X obj 114 772 r g2s8;
#X obj 174 772 r g2s9;
#X obj 234 772 r g2s10;
#X obj 293 773 r g2s11;
#X obj 353 773 r g2s12;
#X obj 422 774 r g2s13;
#X obj 482 774 r g2s14;
#X obj 576 775 r g2s15;
#X obj 660 775 r g2s16;
#X obj -337 703 s gate1;
#X obj -334 855 s gate2;
#X obj -274 855 s gate2;
#X obj -215 856 s gate2;
#X obj -155 856 s gate2;
#X obj -86 857 s gate2;
#X obj -26 857 s gate2;
#X obj 33 858 s gate2;
#X obj 93 858 s gate2;
#X obj 153 858 s gate2;
#X obj 213 858 s gate2;
#X obj 272 859 s gate2;
#X obj 332 859 s gate2;
#X obj 401 860 s gate2;
#X obj 461 860 s gate2;
#X obj 540 861 s gate2;
#X obj 639 861 s gate2;
#X obj 914 1121 vsl 15 128 0 1 0 0 empty empty master_vol 0 -9 0 10
-262144 -1 -1 12442 1;
#X obj 968 852 r list1;
#X obj 968 878 route /noise_mute;
#X obj 1114 1022 *~;
#X obj 1322 1017 *~;
#X obj 1035 436 r list1;
#X obj 1041 464 route /noise_lev;
#X obj 1246 434 r list1;
#X obj 1263 -208 receive fromGUI;
#X obj 1265 -184 route list;
#X obj 1260 -153 s list1;
#X obj 1357 -155 print list:;
#X text 1255 -229 FROM GUI;
#X text 1285 62 SYNTHESIS;
#X text 1094 1462 AUDIO OUTPUT;
#X text 29 315 MASTER SEQUENCER;
#X text -433 314 show active step in GUI display;
#X obj 133 352 r list1;
#X obj 130 381 route /length;
#X floatatom 970 906 5 0 0 0 - - -, f 5;
#X floatatom 1073 988 5 0 0 0 - - -, f 5;
#X msg 973 956 1;
#X msg 1012 957 0;
#X obj 973 932 sel 0;
#X obj 1014 932 sel 1;
#X obj 1187 893 r list1;
#X floatatom 1189 947 5 0 0 0 - - -, f 5;
#X msg 1192 997 1;
#X msg 1231 998 0;
#X obj 1192 973 sel 0;
#X obj 1233 973 sel 1;
#X obj 1187 919 route /sine_mute;
#X floatatom 1296 995 5 0 0 0 - - -, f 5;
#X obj 962 539 loadbang;
#X msg 1230 581 1;
#X obj 1196 556 loadbang;
#X msg 869 1080 1;
#X obj 843 1059 loadbang;
#X obj -113 357 r reset;
#X msg -2 385 15;
#X text -456 751 SEQ2: SINE (BD);
#X obj -360 959 spigot;
#X floatatom -331 937 5 0 0 0 - - -, f 5;
#X obj -300 959 spigot;
#X floatatom -271 937 5 0 0 0 - - -, f 5;
#X obj -241 960 spigot;
#X floatatom -212 938 5 0 0 0 - - -, f 5;
#X obj -181 960 spigot;
#X floatatom -152 938 5 0 0 0 - - -, f 5;
#X obj -112 961 spigot;
#X floatatom -83 939 5 0 0 0 - - -, f 5;
#X obj -52 961 spigot;
#X floatatom -23 939 5 0 0 0 - - -, f 5;
#X obj 7 962 spigot;
#X floatatom 36 940 5 0 0 0 - - -, f 5;
#X obj 67 962 spigot;
#X floatatom 94 940 5 0 0 0 - - -, f 5;
#X obj 127 962 spigot;
#X floatatom 156 940 5 0 0 0 - - -, f 5;
#X obj 187 962 spigot;
#X floatatom 216 940 5 0 0 0 - - -, f 5;
#X obj 246 963 spigot;
#X floatatom 275 941 5 0 0 0 - - -, f 5;
#X obj 306 963 spigot;
#X floatatom 335 941 5 0 0 0 - - -, f 5;
#X obj 375 964 spigot;
#X floatatom 404 942 5 0 0 0 - - -, f 5;
#X obj 435 964 spigot;
#X floatatom 464 942 5 0 0 0 - - -, f 5;
#X obj 514 965 spigot;
#X floatatom 543 943 5 0 0 0 - - -, f 5;
#X obj 613 965 spigot;
#X floatatom 642 943 5 0 0 0 - - -, f 5;
#X obj -337 900 r g3s1;
#X obj -218 901 r g3s3;
#X obj -158 901 r g3s4;
#X obj -89 902 r g3s5;
#X obj -29 902 r g3s6;
#X obj 30 903 r g3s7;
#X obj 90 903 r g3s8;
#X obj 150 903 r g3s9;
#X obj 210 903 r g3s10;
#X obj 269 904 r g3s11;
#X obj 329 904 r g3s12;
#X obj 398 905 r g3s13;
#X obj 458 905 r g3s14;
#X obj 552 906 r g3s15;
#X obj 636 906 r g3s16;
#X obj -358 986 s gate3;
#X obj -298 986 s gate3;
#X obj -239 987 s gate3;
#X obj -179 987 s gate3;
#X obj -110 988 s gate3;
#X obj -50 988 s gate3;
#X obj 9 989 s gate3;
#X obj 69 989 s gate3;
#X obj 129 989 s gate3;
#X obj 189 989 s gate3;
#X obj 248 990 s gate3;
#X obj 308 990 s gate3;
#X obj 377 991 s gate3;
#X obj 437 991 s gate3;
#X obj 516 992 s gate3;
#X obj 615 992 s gate3;
#X text -458 894 SEQ3 FM;
#N canvas 189 22 1440 761 seq3_toggles 0;
#X obj 566 -287 tgl 15 0 empty empty empty 17 7 0 10 -262144 -1 -1
0 1;
#X obj 674 -290 tgl 15 0 empty empty empty 17 7 0 10 -262144 -1 -1
0 1;
#X obj 777 -301 tgl 15 0 empty empty empty 17 7 0 10 -262144 -1 -1
0 1;
#X obj 871 -299 tgl 15 0 empty empty empty 17 7 0 10 -262144 -1 -1
0 1;
#X obj 623 -128 tgl 15 0 empty empty empty 17 7 0 10 -262144 -1 -1
0 1;
#X obj 672 -128 tgl 15 0 empty empty empty 17 7 0 10 -262144 -1 -1
0 1;
#X obj 727 -128 tgl 15 0 empty empty empty 17 7 0 10 -262144 -1 -1
0 1;
#X obj 775 -128 tgl 15 0 empty empty empty 17 7 0 10 -262144 -1 -1
0 1;
#X obj 641 38 tgl 15 0 empty empty empty 17 7 0 10 -262144 -1 -1 0
1;
#X obj 690 38 tgl 15 0 empty empty empty 17 7 0 10 -262144 -1 -1 0
1;
#X obj 745 38 tgl 15 0 empty empty empty 17 7 0 10 -262144 -1 -1 0
1;
#X obj 793 38 tgl 15 0 empty empty empty 17 7 0 10 -262144 -1 -1 0
1;
#X obj 638 235 tgl 15 0 empty empty empty 17 7 0 10 -262144 -1 -1 0
1;
#X obj 687 235 tgl 15 0 empty empty empty 17 7 0 10 -262144 -1 -1 0
1;
#X obj 742 235 tgl 15 0 empty empty empty 17 7 0 10 -262144 -1 -1 0
1;
#X obj 844 236 tgl 15 0 empty empty empty 17 7 0 10 -262144 -1 -1 0
1;
#X obj 556 -391 r list1;
#X obj 563 -341 route 0;
#X obj 563 -313 route 0;
#X obj 665 -395 r list1;
#X obj 672 -345 route 1;
#X obj 672 -317 route 0;
#X obj 776 -409 r list1;
#X obj 783 -331 route 0;
#X obj 783 -359 route 2;
#X obj 869 -406 r list1;
#X obj 876 -328 route 0;
#X obj 876 -356 route 3;
#X obj 570 -232 r list1;
#X obj 577 -154 route 0;
#X obj 577 -182 route 4;
#X obj 662 -233 r list1;
#X obj 669 -155 route 0;
#X obj 669 -183 route 5;
#X obj 750 -237 r list1;
#X obj 757 -159 route 0;
#X obj 757 -187 route 6;
#X obj 840 -234 r list1;
#X obj 847 -156 route 0;
#X obj 847 -184 route 7;
#X obj 567 -68 r list1;
#X obj 574 10 route 0;
#X obj 574 -18 route 8;
#X obj 651 -68 r list1;
#X obj 658 10 route 0;
#X obj 658 -18 route 9;
#X obj 731 -72 r list1;
#X obj 738 6 route 0;
#X obj 738 -22 route 10;
#X obj 846 -68 r list1;
#X obj 853 10 route 0;
#X obj 853 -18 route 11;
#X obj 573 103 r list1;
#X obj 580 181 route 0;
#X obj 580 153 route 12;
#X obj 657 102 r list1;
#X obj 664 180 route 0;
#X obj 664 152 route 13;
#X obj 744 103 r list1;
#X obj 751 181 route 0;
#X obj 751 153 route 14;
#X obj 832 104 r list1;
#X obj 839 182 route 0;
#X obj 839 154 route 15;
#X obj 565 -367 route /seq3;
#X obj 674 -371 route /seq3;
#X obj 785 -385 route /seq3;
#X obj 878 -382 route /seq3;
#X obj 579 -208 route /seq3;
#X obj 671 -209 route /seq3;
#X obj 759 -213 route /seq3;
#X obj 849 -210 route /seq3;
#X obj 576 -44 route /seq3;
#X obj 660 -44 route /seq3;
#X obj 741 -48 route /seq3;
#X obj 855 -44 route /seq3;
#X obj 582 127 route /seq3;
#X obj 666 126 route /seq3;
#X obj 753 127 route /seq3;
#X obj 841 128 route /seq3;
#X obj 561 -265 s g3s1;
#X obj 673 -266 s g3s2;
#X obj 775 -273 s g3s3;
#X obj 869 -271 s g3s4;
#X obj 621 -100 s g3s5;
#X obj 670 -100 s g3s6;
#X obj 725 -100 s g3s7;
#X obj 773 -100 s g3s8;
#X obj 639 66 s g3s9;
#X obj 687 66 s g3s10;
#X obj 743 66 s g3s11;
#X obj 791 66 s g3s12;
#X obj 636 263 s g3s13;
#X obj 685 263 s g3s14;
#X obj 740 263 s g3s15;
#X obj 831 266 s g3s16;
#X connect 0 0 80 0;
#X connect 1 0 81 0;
#X connect 2 0 82 0;
#X connect 3 0 83 0;
#X connect 4 0 84 0;
#X connect 5 0 85 0;
#X connect 6 0 86 0;
#X connect 7 0 87 0;
#X connect 8 0 88 0;
#X connect 9 0 89 0;
#X connect 10 0 90 0;
#X connect 11 0 91 0;
#X connect 12 0 92 0;
#X connect 13 0 93 0;
#X connect 14 0 94 0;
#X connect 15 0 95 0;
#X connect 16 0 64 0;
#X connect 17 0 18 0;
#X connect 18 0 0 0;
#X connect 19 0 65 0;
#X connect 20 0 21 0;
#X connect 21 0 1 0;
#X connect 22 0 66 0;
#X connect 23 0 2 0;
#X connect 24 0 23 0;
#X connect 25 0 67 0;
#X connect 26 0 3 0;
#X connect 27 0 26 0;
#X connect 28 0 68 0;
#X connect 29 0 4 0;
#X connect 30 0 29 0;
#X connect 31 0 69 0;
#X connect 32 0 5 0;
#X connect 33 0 32 0;
#X connect 34 0 70 0;
#X connect 35 0 6 0;
#X connect 36 0 35 0;
#X connect 37 0 71 0;
#X connect 38 0 7 0;
#X connect 39 0 38 0;
#X connect 40 0 72 0;
#X connect 41 0 8 0;
#X connect 42 0 41 0;
#X connect 43 0 73 0;
#X connect 44 0 9 0;
#X connect 45 0 44 0;
#X connect 46 0 74 0;
#X connect 47 0 10 0;
#X connect 48 0 47 0;
#X connect 49 0 75 0;
#X connect 50 0 11 0;
#X connect 51 0 50 0;
#X connect 52 0 76 0;
#X connect 53 0 12 0;
#X connect 54 0 53 0;
#X connect 55 0 77 0;
#X connect 56 0 13 0;
#X connect 57 0 56 0;
#X connect 58 0 78 0;
#X connect 59 0 14 0;
#X connect 60 0 59 0;
#X connect 61 0 79 0;
#X connect 62 0 15 0;
#X connect 63 0 62 0;
#X connect 64 0 17 0;
#X connect 65 0 20 0;
#X connect 66 0 24 0;
#X connect 67 0 27 0;
#X connect 68 0 30 0;
#X connect 69 0 33 0;
#X connect 70 0 36 0;
#X connect 71 0 39 0;
#X connect 72 0 42 0;
#X connect 73 0 45 0;
#X connect 74 0 48 0;
#X connect 75 0 51 0;
#X connect 76 0 54 0;
#X connect 77 0 57 0;
#X connect 78 0 60 0;
#X connect 79 0 63 0;
#X restore -459 920 pd seq3_toggles;
#N canvas -99 22 1440 736 fm 0;
#X obj 128 424 line;
#X floatatom 128 452 5 0 0 0 - - -, f 5;
#X obj 132 171 bng 15 250 50 0 empty empty empty 17 7 0 10 -262144
-1 -1;
#X msg 135 386 0 \$1;
#X obj 37 185 bng 15 250 50 0 empty empty empty 17 7 0 10 -262144 -1
-1;
#X msg 49 336 1 \$1;
#X text 49 156 attack;
#X text 206 164 decay;
#X obj 129 475 sel 1;
#X obj 201 512 bng 15 250 50 0 empty empty empty 17 7 0 10 -262144
-1 -1;
#X floatatom 143 360 5 0 0 0 - - -, f 5;
#X floatatom 48 310 5 0 0 0 - - -, f 5;
#X obj -80 99 r list1;
#X obj 191 109 r list1;
#X floatatom 170 231 5 0 0 0 - - -, f 5;
#X msg 40 246 0;
#X obj 251 163 loadbang;
#X msg 234 192 40;
#X obj 410 166 r list1;
#X floatatom 425 303 5 0 0 0 - - -, f 5;
#X floatatom 337 396 10 0 0 0 - - -, f 10;
#X obj -85 133 route /3/attack;
#X obj 186 143 route /3/decay;
#X obj 34 115 r gate3;
#X obj 106 544 s eg3;
#X obj 410 205 route /fm/carrier;
#X obj 923 418 line;
#X floatatom 923 446 5 0 0 0 - - -, f 5;
#X obj 927 165 bng 15 250 50 0 empty empty empty 17 7 0 10 -262144
-1 -1;
#X msg 930 380 0 \$1;
#X obj 838 179 bng 15 250 50 0 empty empty empty 17 7 0 10 -262144
-1 -1;
#X msg 844 330 1 \$1;
#X text 844 150 attack;
#X text 1001 158 decay;
#X obj 924 469 sel 1;
#X obj 996 506 bng 15 250 50 0 empty empty empty 17 7 0 10 -262144
-1 -1;
#X floatatom 843 304 5 0 0 0 - - -, f 5;
#X obj 770 44 r list1;
#X obj 986 103 r list1;
#X floatatom 965 220 5 0 0 0 - - -, f 5;
#X msg 835 240 0;
#X obj 1058 163 loadbang;
#X msg 1029 186 40;
#X obj 1158 314 osc~ 200;
#X obj 1168 90 r list1;
#X floatatom 1190 187 5 0 0 0 - - -, f 5;
#X floatatom 1116 257 10 0 0 0 - - -, f 10;
#X obj 829 109 r gate3;
#X obj 765 78 route /4/attack;
#X obj 981 137 route /4/decay;
#X obj 901 538 s eg4;
#X obj 1168 120 route /fm/modulator;
#X obj 1266 652 s~ fm-mod;
#X obj 458 438 +~;
#X text 94 76 CARRIER ENVELOPE;
#X text 433 77 CARRIER SYNTHESIS;
#X text 896 75 MODULATOR ENVELOPE;
#X text 1149 68 MODULATOR SYNTHESIS;
#X obj 625 343 *~;
#X obj 618 390 *~;
#X obj 627 255 r~ fm-mod;
#X obj 640 284 r eg4;
#X obj 532 108 r list1;
#X obj 572 143 route /fm/amount;
#X obj 596 247 vsl 15 128 0 1 0 0 empty empty fm_mod_lev 0 -9 0 10
-262144 -1 -1 12700 1;
#X obj 552 421 *~ 1000;
#X obj 460 684 s~ fm;
#X obj 1181 217 * 4000;
#X obj 382 558 osc~ 200;
#X obj 679 484 r list1;
#X obj 681 512 route /fm/wavetype;
#X floatatom 667 539 5 0 0 0 - - -, f 5;
#N canvas 0 22 612 483 equal_power_crossfade 0;
#X obj 33 48 inlet~;
#X obj 244 58 inlet;
#X obj 33 332 outlet~;
#X obj 319 54 loadbang;
#X msg 319 74 0.5;
#X obj 49 194 expr cos($f1 * 3.14159 / 2);
#X obj 244 194 expr sin($f1 * 3.14159 / 2);
#X obj 244 134 clip 0 1;
#N canvas 0 22 569 633 pan_core 0;
#X obj 21 106 inlet~;
#X obj 226 126 inlet;
#X obj 80 453 *~;
#X obj 144 497 outlet~;
#X obj 210 452 *~;
#X obj 226 428 line~;
#X obj 96 428 line~;
#X obj 96 127 inlet;
#X obj 179 104 inlet~;
#X text 244 544 comment;
#X obj 96 389 pack f 5;
#X obj 226 389 pack f 5;
#X text 223 540 Hans-Christoph Steiner \, 2004;
#X text 223 526 Adapted from [pan_core~];
#X connect 0 0 2 0;
#X connect 1 0 11 0;
#X connect 2 0 3 0;
#X connect 4 0 3 0;
#X connect 5 0 4 1;
#X connect 6 0 2 1;
#X connect 7 0 10 0;
#X connect 8 0 4 0;
#X connect 10 0 6 0;
#X connect 11 0 5 0;
#X restore 39 266 pd pan_core;
#X text 256 437 Adapted from [equal_power_pan~] \, Hans-Christoph Steiner
\, 2004;
#X text 411 449 comment;
#X obj 128 46 inlet~;
#X connect 0 0 8 0;
#X connect 1 0 7 0;
#X connect 3 0 4 0;
#X connect 4 0 7 0;
#X connect 5 0 8 1;
#X connect 6 0 8 3;
#X connect 7 0 5 0;
#X connect 7 0 6 0;
#X connect 8 0 2 0;
#X connect 11 0 8 2;
#X restore 411 616 pd equal_power_crossfade;
#X obj 522 567 phasor~ 200;
#X obj 581 189 * 10;
#X obj 178 200 * 1000;
#X obj 978 184 * 1000;
#X obj 1445 491 r list1;
#X floatatom 1433 546 5 0 0 0 - - -, f 5;
#X obj 1447 519 route /fm_mod/wavetype;
#N canvas 0 22 612 483 equal_power_crossfade 0;
#X obj 33 48 inlet~;
#X obj 244 58 inlet;
#X obj 33 332 outlet~;
#X obj 319 54 loadbang;
#X msg 319 74 0.5;
#X obj 49 194 expr cos($f1 * 3.14159 / 2);
#X obj 244 194 expr sin($f1 * 3.14159 / 2);
#X obj 244 134 clip 0 1;
#N canvas 0 22 569 633 pan_core 0;
#X obj 21 106 inlet~;
#X obj 226 126 inlet;
#X obj 80 453 *~;
#X obj 144 497 outlet~;
#X obj 210 452 *~;
#X obj 226 428 line~;
#X obj 96 428 line~;
#X obj 96 127 inlet;
#X obj 179 104 inlet~;
#X text 244 544 comment;
#X obj 96 389 pack f 5;
#X obj 226 389 pack f 5;
#X text 223 540 Hans-Christoph Steiner \, 2004;
#X text 223 526 Adapted from [pan_core~];
#X connect 0 0 2 0;
#X connect 1 0 11 0;
#X connect 2 0 3 0;
#X connect 4 0 3 0;
#X connect 5 0 4 1;
#X connect 6 0 2 1;
#X connect 7 0 10 0;
#X connect 8 0 4 0;
#X connect 10 0 6 0;
#X connect 11 0 5 0;
#X restore 39 266 pd pan_core;
#X text 256 437 Adapted from [equal_power_pan~] \, Hans-Christoph Steiner
\, 2004;
#X text 411 449 comment;
#X obj 128 46 inlet~;
#X connect 0 0 8 0;
#X connect 1 0 7 0;
#X connect 3 0 4 0;
#X connect 4 0 7 0;
#X connect 5 0 8 1;
#X connect 6 0 8 3;
#X connect 7 0 5 0;
#X connect 7 0 6 0;
#X connect 8 0 2 0;
#X connect 11 0 8 2;
#X restore 1230 591 pd equal_power_crossfade;
#X obj 1279 239 noise~;
#X obj 1342 70 r list1;
#X obj 1335 313 bp~ 220 1;
#X text 1401 307 bandpass filter;
#X obj 1403 140 r list1;
#X obj 1345 173 * 16000;
#X obj 1404 212 * 50;
#X obj 1344 99 route /fm/modulator;
#X msg 1471 219 10;
#X obj 416 333 * 4000;
#X obj 1405 169 route /fm/modulator;
#X connect 0 0 1 0;
#X connect 1 0 8 0;
#X connect 1 0 24 0;
#X connect 2 0 14 0;
#X connect 3 0 0 0;
#X connect 4 0 15 0;
#X connect 5 0 0 0;
#X connect 8 0 9 0;
#X connect 9 0 2 0;
#X connect 10 0 3 0;
#X connect 11 0 5 0;
#X connect 12 0 21 0;
#X connect 13 0 22 0;
#X connect 14 0 10 0;
#X connect 15 0 11 0;
#X connect 16 0 17 0;
#X connect 17 0 14 0;
#X connect 18 0 25 0;
#X connect 19 0 90 0;
#X connect 22 0 75 0;
#X connect 23 0 4 0;
#X connect 25 0 19 0;
#X connect 26 0 27 0;
#X connect 27 0 34 0;
#X connect 27 0 50 0;
#X connect 28 0 39 0;
#X connect 29 0 26 0;
#X connect 30 0 40 0;
#X connect 31 0 26 0;
#X connect 34 0 35 0;
#X connect 35 0 28 0;
#X connect 36 0 31 0;
#X connect 37 0 48 0;
#X connect 38 0 49 0;
#X connect 39 0 29 0;
#X connect 40 0 36 0;
#X connect 41 0 42 0;
#X connect 42 0 39 0;
#X connect 43 0 80 0;
#X connect 44 0 51 0;
#X connect 45 0 67 0;
#X connect 47 0 30 0;
#X connect 49 0 76 0;
#X connect 51 0 45 0;
#X connect 53 0 68 0;
#X connect 53 0 73 0;
#X connect 58 0 59 1;
#X connect 59 0 65 0;
#X connect 60 0 58 0;
#X connect 61 0 58 1;
#X connect 62 0 63 0;
#X connect 63 0 74 0;
#X connect 64 0 59 0;
#X connect 65 0 53 1;
#X connect 67 0 43 0;
#X connect 67 0 46 0;
#X connect 68 0 72 0;
#X connect 69 0 70 0;
#X connect 70 0 71 0;
#X connect 71 0 72 2;
#X connect 72 0 66 0;
#X connect 73 0 72 1;
#X connect 74 0 64 0;
#X connect 75 0 14 0;
#X connect 76 0 39 0;
#X connect 77 0 79 0;
#X connect 78 0 80 2;
#X connect 79 0 78 0;
#X connect 80 0 52 0;
#X connect 81 0 83 0;
#X connect 82 0 88 0;
#X connect 83 0 80 1;
#X connect 85 0 91 0;
#X connect 86 0 83 1;
#X connect 87 0 83 2;
#X connect 88 0 86 0;
#X connect 89 0 83 2;
#X connect 90 0 20 0;
#X connect 90 0 53 0;
#X connect 91 0 87 0;
#X restore 1411 179 pd fm;
#X obj 1252 462 route /sine_lev;
#X obj 1484 756 *~;
#X obj 1477 803 *~;
#X obj 1455 660 vsl 15 128 0 1 0 0 empty empty fm_lev 0 -9 0 10 -262144
-1 -1 2012 1;
#X obj 1532 976 *~;
#X obj 1421 430 r list1;
#X obj 1404 835 r list1;
#X floatatom 1406 889 5 0 0 0 - - -, f 5;
#X msg 1409 939 1;
#X msg 1448 940 0;
#X obj 1409 915 sel 0;
#X obj 1450 915 sel 1;
#X floatatom 1513 937 5 0 0 0 - - -, f 5;
#X obj 1377 584 loadbang;
#X obj 1404 861 route /fm_mute;
#X obj 1500 656 r~ fm;
#X obj 1509 697 r eg3;
#X obj 1427 458 route /fm_lev;
#X obj -277 900 r g3s2;
#X msg 994 569 0.9;
#X msg 1405 611 0.5;
#X obj 1434 535 * 0.7;
#X obj 1024 532 * 2;
#N canvas 461 22 1095 769 sine 0;
#X obj 56 425 line;
#X floatatom 56 453 5 0 0 0 - - -, f 5;
#X obj 60 172 bng 15 250 50 0 empty empty empty 17 7 0 10 -262144 -1
-1;
#X msg 63 387 0 \$1;
#X obj -29 186 bng 15 250 50 0 empty empty empty 17 7 0 10 -262144
-1 -1;
#X msg -23 337 1 \$1;
#X text -23 157 attack;
#X text 134 165 decay;
#X obj 57 476 sel 1;
#X obj 129 513 bng 15 250 50 0 empty empty empty 17 7 0 10 -262144
-1 -1;
#X floatatom 71 361 5 0 0 0 - - -, f 5;
#X floatatom -24 311 5 0 0 0 - - -, f 5;
#X obj -152 100 r list1;
#X obj 119 110 r list1;
#X floatatom 98 232 5 0 0 0 - - -, f 5;
#X obj 92 290 + 1;
#X text 570 252 GENERATION;
#X obj 189 171 loadbang;
#X msg 162 193 40;
#X obj 737 720 s~ sine;
#X obj -157 134 route /2/attack;
#X obj 114 144 route /2/decay;
#X obj 34 545 s eg2;
#X obj -38 116 r gate2;
#X obj 721 583 osc~ 200;
#X obj 755 286 r list1;
#X obj 755 325 route /sine/pitch;
#X floatatom 761 369 5 0 0 0 - - -, f 5;
#N canvas 0 22 612 483 equal_power_crossfade 0;
#X obj 33 48 inlet~;
#X obj 244 58 inlet;
#X obj 33 332 outlet~;
#X obj 319 54 loadbang;
#X msg 319 74 0.5;
#X obj 49 194 expr cos($f1 * 3.14159 / 2);
#X obj 244 194 expr sin($f1 * 3.14159 / 2);
#X obj 244 134 clip 0 1;
#N canvas 0 22 569 633 pan_core 0;
#X obj 21 106 inlet~;
#X obj 226 126 inlet;
#X obj 80 453 *~;
#X obj 144 497 outlet~;
#X obj 210 452 *~;
#X obj 226 428 line~;
#X obj 96 428 line~;
#X obj 96 127 inlet;
#X obj 179 104 inlet~;
#X text 244 544 comment;
#X obj 96 389 pack f 5;
#X obj 226 389 pack f 5;
#X text 223 540 Hans-Christoph Steiner \, 2004;
#X text 223 526 Adapted from [pan_core~];
#X connect 0 0 2 0;
#X connect 1 0 11 0;
#X connect 2 0 3 0;
#X connect 4 0 3 0;
#X connect 5 0 4 1;
#X connect 6 0 2 1;
#X connect 7 0 10 0;
#X connect 8 0 4 0;
#X connect 10 0 6 0;
#X connect 11 0 5 0;
#X restore 39 266 pd pan_core;
#X text 256 437 Adapted from [equal_power_pan~] \, Hans-Christoph Steiner
\, 2004;
#X text 411 449 comment;
#X obj 128 46 inlet~;
#X connect 0 0 8 0;
#X connect 1 0 7 0;
#X connect 3 0 4 0;
#X connect 4 0 7 0;
#X connect 5 0 8 1;
#X connect 6 0 8 3;
#X connect 7 0 5 0;
#X connect 7 0 6 0;
#X connect 8 0 2 0;
#X connect 11 0 8 2;
#X restore 718 667 pd equal_power_crossfade;
#X obj 954 390 r list1;
#X floatatom 942 445 5 0 0 0 - - -, f 5;
#X obj 956 418 route /sine/wavetype;
#X msg -32 247 1;
#X obj 98 258 * 1500;
#X obj 795 527 phasor~ 200;
#X obj 800 572 expr~ $v1 > 0.5;
#X text 814 550 square wave;
#X text 29 82 AMPLITUDE ENVELOPE;
#X obj 438 394 line;
#X floatatom 438 422 5 0 0 0 - - -, f 5;
#X obj 442 141 bng 15 250 50 0 empty empty empty 17 7 0 10 -262144
-1 -1;
#X msg 445 356 0 \$1;
#X obj 353 155 bng 15 250 50 0 empty empty empty 17 7 0 10 -262144
-1 -1;
#X msg 359 306 1 \$1;
#X text 359 126 attack;
#X text 516 134 decay;
#X obj 439 445 sel 1;
#X obj 511 482 bng 15 250 50 0 empty empty empty 17 7 0 10 -262144
-1 -1;
#X floatatom 453 330 5 0 0 0 - - -, f 5;
#X floatatom 358 280 5 0 0 0 - - -, f 5;
#X obj 230 69 r list1;
#X obj 501 79 r list1;
#X floatatom 480 201 5 0 0 0 - - -, f 5;
#X obj 474 259 + 1;
#X obj 571 140 loadbang;
#X msg 544 162 40;
#X obj 225 103 route /2/attack;
#X obj 344 85 r gate2;
#X msg 350 216 1;
#X text 411 51 PITCH ENVELOPE;
#X obj 416 514 s eg5;
#X obj 748 468 +~;
#X obj 600 445 *;
#X obj 541 274 r list1;
#X floatatom 542 336 5 0 0 0 - - -, f 5;
#X obj 538 361 * 400;
#X obj 541 302 route /sine/bend_amt;
#X obj 496 113 route /sine/bend;
#X obj 487 134 * 10;
#X obj 752 399 * 200;
#X obj 751 429 -200;
#X obj 480 227 * 100;
#X obj 798 594 *~ 0.8;
#X obj 19 116 r sine_midi;
#X obj 689 239 r~ sine_fm;
#X obj 677 420 +~;
#X obj 707 270 r~ SH;
#X connect 0 0 1 0;
#X connect 1 0 8 0;
#X connect 1 0 22 0;
#X connect 2 0 14 0;
#X connect 3 0 0 0;
#X connect 4 0 32 0;
#X connect 5 0 0 0;
#X connect 8 0 9 0;
#X connect 9 0 2 0;
#X connect 10 0 3 0;
#X connect 11 0 5 0;
#X connect 12 0 20 0;
#X connect 13 0 21 0;
#X connect 14 0 33 0;
#X connect 15 0 10 0;
#X connect 17 0 18 0;
#X connect 18 0 14 0;
#X connect 21 0 14 0;
#X connect 23 0 4 0;
#X connect 24 0 28 0;
#X connect 25 0 26 0;
#X connect 26 0 27 0;
#X connect 27 0 69 0;
#X connect 28 0 19 0;
#X connect 29 0 31 0;
#X connect 30 0 28 2;
#X connect 31 0 30 0;
#X connect 32 0 11 0;
#X connect 33 0 15 0;
#X connect 34 0 35 0;
#X connect 35 0 72 0;
#X connect 38 0 39 0;
#X connect 39 0 46 0;
#X connect 39 0 60 0;
#X connect 39 0 62 0;
#X connect 40 0 52 0;
#X connect 41 0 38 0;
#X connect 42 0 58 0;
#X connect 43 0 38 0;
#X connect 46 0 47 0;
#X connect 47 0 40 0;
#X connect 48 0 41 0;
#X connect 49 0 43 0;
#X connect 50 0 56 0;
#X connect 51 0 67 0;
#X connect 52 0 71 0;
#X connect 53 0 48 0;
#X connect 54 0 55 0;
#X connect 55 0 52 0;
#X connect 57 0 42 0;
#X connect 58 0 49 0;
#X connect 61 0 34 0;
#X connect 61 0 24 0;
#X connect 62 0 75 0;
#X connect 63 0 66 0;
#X connect 64 0 65 0;
#X connect 65 0 62 1;
#X connect 66 0 64 0;
#X connect 67 0 68 0;
#X connect 68 0 52 0;
#X connect 69 0 70 0;
#X connect 70 0 61 1;
#X connect 71 0 53 0;
#X connect 72 0 28 1;
#X connect 73 0 4 0;
#X connect 74 0 75 1;
#X connect 75 0 61 0;
#X restore 1255 178 pd sine;
#N canvas 294 22 1242 769 bang 0;
#X obj 56 425 line;
#X floatatom 56 453 5 0 0 0 - - -, f 5;
#X obj 60 172 bng 15 250 50 0 empty empty empty 17 7 0 10 -262144 -1
-1;
#X msg 63 387 0 \$1;
#X obj -29 186 bng 15 250 50 0 empty empty empty 17 7 0 10 -262144
-1 -1;
#X msg -23 337 1 \$1;
#X text -23 157 attack;
#X text 134 165 decay;
#X obj 57 476 sel 1;
#X obj 129 513 bng 15 250 50 0 empty empty empty 17 7 0 10 -262144
-1 -1;
#X floatatom 71 361 5 0 0 0 - - -, f 5;
#X floatatom -24 311 5 0 0 0 - - -, f 5;
#X obj -152 100 r list1;
#X obj 119 110 r list1;
#X floatatom 98 232 5 0 0 0 - - -, f 5;
#X obj 92 290 + 1;
#X text 570 252 GENERATION;
#X obj 189 171 loadbang;
#X msg 162 193 40;
#X obj 654 507 osc~ 200;
#X obj 688 210 r list1;
#X floatatom 694 293 5 0 0 0 - - -, f 5;
#N canvas 0 22 612 483 equal_power_crossfade 0;
#X obj 33 48 inlet~;
#X obj 244 58 inlet;
#X obj 33 332 outlet~;
#X obj 319 54 loadbang;
#X msg 319 74 0.5;
#X obj 49 194 expr cos($f1 * 3.14159 / 2);
#X obj 244 194 expr sin($f1 * 3.14159 / 2);
#X obj 244 134 clip 0 1;
#N canvas 0 22 569 633 pan_core 0;
#X obj 21 106 inlet~;
#X obj 226 126 inlet;
#X obj 80 453 *~;
#X obj 144 497 outlet~;
#X obj 210 452 *~;
#X obj 226 428 line~;
#X obj 96 428 line~;
#X obj 96 127 inlet;
#X obj 179 104 inlet~;
#X text 244 544 comment;
#X obj 96 389 pack f 5;
#X obj 226 389 pack f 5;
#X text 223 540 Hans-Christoph Steiner \, 2004;
#X text 223 526 Adapted from [pan_core~];
#X connect 0 0 2 0;
#X connect 1 0 11 0;
#X connect 2 0 3 0;
#X connect 4 0 3 0;
#X connect 5 0 4 1;
#X connect 6 0 2 1;
#X connect 7 0 10 0;
#X connect 8 0 4 0;
#X connect 10 0 6 0;
#X connect 11 0 5 0;
#X restore 39 266 pd pan_core;
#X text 256 437 Adapted from [equal_power_pan~] \, Hans-Christoph Steiner
\, 2004;
#X text 411 449 comment;
#X obj 128 46 inlet~;
#X connect 0 0 8 0;
#X connect 1 0 7 0;
#X connect 3 0 4 0;
#X connect 4 0 7 0;
#X connect 5 0 8 1;
#X connect 6 0 8 3;
#X connect 7 0 5 0;
#X connect 7 0 6 0;
#X connect 8 0 2 0;
#X connect 11 0 8 2;
#X restore 673 604 pd equal_power_crossfade;
#X obj 954 390 r list1;
#X floatatom 942 445 5 0 0 0 - - -, f 5;
#X msg -32 247 1;
#X obj 98 258 * 1500;
#X text 29 82 AMPLITUDE ENVELOPE;
#X obj 438 394 line;
#X floatatom 438 422 5 0 0 0 - - -, f 5;
#X obj 442 141 bng 15 250 50 0 empty empty empty 17 7 0 10 -262144
-1 -1;
#X msg 445 356 0 \$1;
#X obj 353 155 bng 15 250 50 0 empty empty empty 17 7 0 10 -262144
-1 -1;
#X msg 359 306 1 \$1;
#X text 359 126 attack;
#X text 516 134 decay;
#X obj 439 445 sel 1;
#X obj 511 482 bng 15 250 50 0 empty empty empty 17 7 0 10 -262144
-1 -1;
#X floatatom 453 330 5 0 0 0 - - -, f 5;
#X floatatom 358 280 5 0 0 0 - - -, f 5;
#X obj 230 69 r list1;
#X obj 501 79 r list1;
#X floatatom 480 201 5 0 0 0 - - -, f 5;
#X obj 474 259 + 1;
#X obj 571 140 loadbang;
#X msg 544 162 40;
#X obj 225 103 route /2/attack;
#X msg 350 216 1;
#X text 411 51 PITCH ENVELOPE;
#X obj 681 392 +~;
#X obj 600 445 *;
#X obj 541 274 r list1;
#X floatatom 542 336 5 0 0 0 - - -, f 5;
#X obj 538 361 * 400;
#X obj 487 134 * 10;
#X obj 684 353 -200;
#X obj 480 227 * 100;
#X obj 34 545 s eg6;
#X obj 416 514 s eg7;
#X obj 956 418 route /bang/wavetype;
#X obj 692 657 s~ bang;
#X obj 688 249 route /bang/pitch;
#X obj 541 302 route /bang/bend_amt;
#X obj 496 113 route /bang/bend;
#X obj -38 116 r gate4;
#X obj 344 85 r gate4;
#X obj -157 134 route /bang/attack;
#X obj 114 144 route /bang/decay;
#X obj 685 323 * 500;
#X obj 829 352 phasor~;
#X obj 764 352 phasor~;
#X obj 801 305 *~ -1;
#X obj 818 497 +~;
#X obj 849 389 *~ 2;
#X obj 852 423 -~ 1;
#X obj 765 389 *~ 2;
#X obj 768 423 -~ 1;
#X obj 765 456 clip~ 0 1;
#X obj 849 456 clip~ 0 1;
#X msg 865 321 0;
#X obj 856 296 loadbang;
#X obj 784 548 *~ 2;
#X connect 0 0 1 0;
#X connect 1 0 8 0;
#X connect 1 0 57 0;
#X connect 2 0 14 0;
#X connect 3 0 0 0;
#X connect 4 0 25 0;
#X connect 5 0 0 0;
#X connect 8 0 9 0;
#X connect 9 0 2 0;
#X connect 10 0 3 0;
#X connect 11 0 5 0;
#X connect 12 0 66 0;
#X connect 13 0 67 0;
#X connect 14 0 26 0;
#X connect 15 0 10 0;
#X connect 17 0 18 0;
#X connect 18 0 14 0;
#X connect 19 0 22 0;
#X connect 20 0 61 0;
#X connect 21 0 68 0;
#X connect 22 0 60 0;
#X connect 23 0 59 0;
#X connect 24 0 22 2;
#X connect 25 0 11 0;
#X connect 26 0 15 0;
#X connect 28 0 29 0;
#X connect 29 0 36 0;
#X connect 29 0 50 0;
#X connect 29 0 58 0;
#X connect 30 0 42 0;
#X connect 31 0 28 0;
#X connect 32 0 47 0;
#X connect 33 0 28 0;
#X connect 36 0 37 0;
#X connect 37 0 30 0;
#X connect 38 0 31 0;
#X connect 39 0 33 0;
#X connect 40 0 46 0;
#X connect 41 0 63 0;
#X connect 42 0 56 0;
#X connect 43 0 38 0;
#X connect 44 0 45 0;
#X connect 45 0 42 0;
#X connect 47 0 39 0;
#X connect 49 0 19 0;
#X connect 49 0 70 0;
#X connect 49 0 71 0;
#X connect 50 0 49 0;
#X connect 51 0 62 0;
#X connect 52 0 53 0;
#X connect 53 0 50 1;
#X connect 54 0 42 0;
#X connect 55 0 49 1;
#X connect 56 0 43 0;
#X connect 59 0 24 0;
#X connect 61 0 21 0;
#X connect 62 0 52 0;
#X connect 63 0 54 0;
#X connect 64 0 4 0;
#X connect 65 0 32 0;
#X connect 67 0 14 0;
#X connect 68 0 55 0;
#X connect 69 0 73 0;
#X connect 70 0 75 0;
#X connect 71 0 69 0;
#X connect 72 0 81 0;
#X connect 73 0 74 0;
#X connect 74 0 78 0;
#X connect 75 0 76 0;
#X connect 76 0 77 0;
#X connect 77 0 72 0;
#X connect 78 0 72 1;
#X connect 79 0 70 1;
#X connect 79 0 69 1;
#X connect 80 0 79 0;
#X connect 81 0 22 1;
#X restore 1591 183 pd bang;
#X obj 1691 746 *~;
#X obj 1686 799 *~;
#X obj 1666 647 vsl 15 128 0 1 0 0 empty empty bang_lev 0 -9 0 10 -262144
-1 -1 7418 1;
#X obj 1794 1012 *~;
#X obj 1645 429 r list1;
#X obj 1670 861 r list1;
#X floatatom 1672 915 5 0 0 0 - - -, f 5;
#X msg 1675 965 1;
#X msg 1714 966 0;
#X obj 1675 941 sel 0;
#X obj 1716 941 sel 1;
#X floatatom 1779 963 5 0 0 0 - - -, f 5;
#X msg 1627 607 1;
#X obj 1593 582 loadbang;
#X obj 1651 457 route /bang_lev;
#X obj 1689 658 r~ bang;
#X obj 1670 887 route /bang_mute;
#X obj 1706 687 r eg6;
#X obj -367 1094 spigot;
#X floatatom -338 1072 5 0 0 0 - - -, f 5;
#X obj -307 1094 spigot;
#X floatatom -278 1072 5 0 0 0 - - -, f 5;
#X obj -248 1095 spigot;
#X floatatom -219 1073 5 0 0 0 - - -, f 5;
#X obj -188 1095 spigot;
#X floatatom -159 1073 5 0 0 0 - - -, f 5;
#X obj -119 1096 spigot;
#X floatatom -90 1074 5 0 0 0 - - -, f 5;
#X obj -59 1096 spigot;
#X floatatom -30 1074 5 0 0 0 - - -, f 5;
#X obj 0 1097 spigot;
#X floatatom 29 1075 5 0 0 0 - - -, f 5;
#X obj 60 1097 spigot;
#X floatatom 89 1075 5 0 0 0 - - -, f 5;
#X obj 120 1097 spigot;
#X floatatom 149 1075 5 0 0 0 - - -, f 5;
#X obj 180 1097 spigot;
#X floatatom 209 1075 5 0 0 0 - - -, f 5;
#X obj 239 1098 spigot;
#X floatatom 268 1076 5 0 0 0 - - -, f 5;
#X obj 299 1098 spigot;
#X floatatom 328 1076 5 0 0 0 - - -, f 5;
#X obj 368 1099 spigot;
#X floatatom 397 1077 5 0 0 0 - - -, f 5;
#X obj 428 1099 spigot;
#X floatatom 457 1077 5 0 0 0 - - -, f 5;
#X obj 507 1100 spigot;
#X floatatom 536 1078 5 0 0 0 - - -, f 5;
#X obj 606 1100 spigot;
#X floatatom 635 1078 5 0 0 0 - - -, f 5;
#X text -465 1029 SEQ4 Bang;
#N canvas 70 32 1440 761 seq4_toggles 0;
#X obj 504 115 tgl 15 0 empty empty empty 17 7 0 10 -262144 -1 -1 0
1;
#X obj 612 112 tgl 15 0 empty empty empty 17 7 0 10 -262144 -1 -1 0
1;
#X obj 715 101 tgl 15 0 empty empty empty 17 7 0 10 -262144 -1 -1 0
1;
#X obj 809 103 tgl 15 0 empty empty empty 17 7 0 10 -262144 -1 -1 0
1;
#X obj 561 274 tgl 15 0 empty empty empty 17 7 0 10 -262144 -1 -1 0
1;
#X obj 610 274 tgl 15 0 empty empty empty 17 7 0 10 -262144 -1 -1 0
1;
#X obj 665 274 tgl 15 0 empty empty empty 17 7 0 10 -262144 -1 -1 0
1;
#X obj 713 274 tgl 15 0 empty empty empty 17 7 0 10 -262144 -1 -1 0
1;
#X obj 579 440 tgl 15 0 empty empty empty 17 7 0 10 -262144 -1 -1 0
1;
#X obj 628 440 tgl 15 0 empty empty empty 17 7 0 10 -262144 -1 -1 0
1;
#X obj 683 440 tgl 15 0 empty empty empty 17 7 0 10 -262144 -1 -1 0
1;
#X obj 731 440 tgl 15 0 empty empty empty 17 7 0 10 -262144 -1 -1 0
1;
#X obj 576 637 tgl 15 0 empty empty empty 17 7 0 10 -262144 -1 -1 0
1;
#X obj 625 637 tgl 15 0 empty empty empty 17 7 0 10 -262144 -1 -1 0
1;
#X obj 680 637 tgl 15 0 empty empty empty 17 7 0 10 -262144 -1 -1 0
1;
#X obj 782 638 tgl 15 0 empty empty empty 17 7 0 10 -262144 -1 -1 0
1;
#X obj 494 11 r list1;
#X obj 501 61 route 0;
#X obj 501 89 route 0;
#X obj 603 7 r list1;
#X obj 610 57 route 1;
#X obj 610 85 route 0;
#X obj 714 -7 r list1;
#X obj 721 71 route 0;
#X obj 721 43 route 2;
#X obj 807 -4 r list1;
#X obj 814 74 route 0;
#X obj 814 46 route 3;
#X obj 508 170 r list1;
#X obj 515 248 route 0;
#X obj 515 220 route 4;
#X obj 600 169 r list1;
#X obj 607 247 route 0;
#X obj 607 219 route 5;
#X obj 688 165 r list1;
#X obj 695 243 route 0;
#X obj 695 215 route 6;
#X obj 778 168 r list1;
#X obj 785 246 route 0;
#X obj 785 218 route 7;
#X obj 505 334 r list1;
#X obj 512 412 route 0;
#X obj 512 384 route 8;
#X obj 589 334 r list1;
#X obj 596 412 route 0;
#X obj 596 384 route 9;
#X obj 669 330 r list1;
#X obj 676 408 route 0;
#X obj 676 380 route 10;
#X obj 784 334 r list1;
#X obj 791 412 route 0;
#X obj 791 384 route 11;
#X obj 511 505 r list1;
#X obj 518 583 route 0;
#X obj 518 555 route 12;
#X obj 595 504 r list1;
#X obj 602 582 route 0;
#X obj 602 554 route 13;
#X obj 682 505 r list1;
#X obj 689 583 route 0;
#X obj 689 555 route 14;
#X obj 770 506 r list1;
#X obj 777 584 route 0;
#X obj 777 556 route 15;
#X obj 503 35 route /seq4;
#X obj 612 31 route /seq4;
#X obj 723 17 route /seq4;
#X obj 816 20 route /seq4;
#X obj 517 194 route /seq4;
#X obj 609 193 route /seq4;
#X obj 698 189 route /seq4;
#X obj 787 192 route /seq4;
#X obj 514 358 route /seq4;
#X obj 598 358 route /seq4;
#X obj 679 354 route /seq4;
#X obj 793 358 route /seq4;
#X obj 520 529 route /seq4;
#X obj 604 528 route /seq4;
#X obj 691 529 route /seq4;
#X obj 779 530 route /seq4;
#X obj 499 137 s g4s1;
#X obj 611 136 s g4s2;
#X obj 713 129 s g4s3;
#X obj 807 131 s g4s4;
#X obj 559 302 s g4s5;
#X obj 608 302 s g4s6;
#X obj 663 302 s g4s7;
#X obj 711 302 s g4s8;
#X obj 577 468 s g4s9;
#X obj 625 468 s g4s10;
#X obj 681 468 s g4s11;
#X obj 729 468 s g4s12;
#X obj 574 665 s g4s13;
#X obj 623 665 s g4s14;
#X obj 678 665 s g4s15;
#X obj 769 668 s g4s16;
#X connect 0 0 80 0;
#X connect 1 0 81 0;
#X connect 2 0 82 0;
#X connect 3 0 83 0;
#X connect 4 0 84 0;
#X connect 5 0 85 0;
#X connect 6 0 86 0;
#X connect 7 0 87 0;
#X connect 8 0 88 0;
#X connect 9 0 89 0;
#X connect 10 0 90 0;
#X connect 11 0 91 0;
#X connect 12 0 92 0;
#X connect 13 0 93 0;
#X connect 14 0 94 0;
#X connect 15 0 95 0;
#X connect 16 0 64 0;
#X connect 17 0 18 0;
#X connect 18 0 0 0;
#X connect 19 0 65 0;
#X connect 20 0 21 0;
#X connect 21 0 1 0;
#X connect 22 0 66 0;
#X connect 23 0 2 0;
#X connect 24 0 23 0;
#X connect 25 0 67 0;
#X connect 26 0 3 0;
#X connect 27 0 26 0;
#X connect 28 0 68 0;
#X connect 29 0 4 0;
#X connect 30 0 29 0;
#X connect 31 0 69 0;
#X connect 32 0 5 0;
#X connect 33 0 32 0;
#X connect 34 0 70 0;
#X connect 35 0 6 0;
#X connect 36 0 35 0;
#X connect 37 0 71 0;
#X connect 38 0 7 0;
#X connect 39 0 38 0;
#X connect 40 0 72 0;
#X connect 41 0 8 0;
#X connect 42 0 41 0;
#X connect 43 0 73 0;
#X connect 44 0 9 0;
#X connect 45 0 44 0;
#X connect 46 0 74 0;
#X connect 47 0 10 0;
#X connect 48 0 47 0;
#X connect 49 0 75 0;
#X connect 50 0 11 0;
#X connect 51 0 50 0;
#X connect 52 0 76 0;
#X connect 53 0 12 0;
#X connect 54 0 53 0;
#X connect 55 0 77 0;
#X connect 56 0 13 0;
#X connect 57 0 56 0;
#X connect 58 0 78 0;
#X connect 59 0 14 0;
#X connect 60 0 59 0;
#X connect 61 0 79 0;
#X connect 62 0 15 0;
#X connect 63 0 62 0;
#X connect 64 0 17 0;
#X connect 65 0 20 0;
#X connect 66 0 24 0;
#X connect 67 0 27 0;
#X connect 68 0 30 0;
#X connect 69 0 33 0;
#X connect 70 0 36 0;
#X connect 71 0 39 0;
#X connect 72 0 42 0;
#X connect 73 0 45 0;
#X connect 74 0 48 0;
#X connect 75 0 51 0;
#X connect 76 0 54 0;
#X connect 77 0 57 0;
#X connect 78 0 60 0;
#X connect 79 0 63 0;
#X restore -466 1055 pd seq4_toggles;
#X obj -365 1121 s gate4;
#X obj -305 1121 s gate4;
#X obj -246 1122 s gate4;
#X obj -186 1122 s gate4;
#X obj -117 1123 s gate4;
#X obj -57 1123 s gate4;
#X obj 2 1124 s gate4;
#X obj 62 1124 s gate4;
#X obj 122 1124 s gate4;
#X obj 182 1124 s gate4;
#X obj 241 1125 s gate4;
#X obj 301 1125 s gate4;
#X obj 370 1126 s gate4;
#X obj 430 1126 s gate4;
#X obj 509 1127 s gate4;
#X obj 608 1127 s gate4;
#X obj -344 1035 r g4s1;
#X obj -284 1035 r g4s2;
#X obj -225 1036 r g4s3;
#X obj -165 1036 r g4s4;
#X obj -96 1037 r g4s5;
#X obj -36 1037 r g4s6;
#X obj 23 1038 r g4s7;
#X obj 83 1038 r g4s8;
#X obj 143 1038 r g4s9;
#X obj 203 1038 r g4s10;
#X obj 262 1039 r g4s11;
#X obj 322 1039 r g4s12;
#X obj 391 1040 r g4s13;
#X obj 451 1040 r g4s14;
#X obj 545 1041 r g4s15;
#X obj 629 1041 r g4s16;
#X obj 916 1050 r list1;
#X obj 916 1076 route /master_lev;
#X obj 1018 907 loadbang;
#X obj 1149 964 loadbang;
#X obj 1362 826 loadbang;
#X obj 1604 910 loadbang;
#X obj 1615 1263 r clock;
#X obj 1616 1289 bng 15 250 50 0 empty empty empty 17 7 0 10 -262144
-1 -1;
#X obj 1733 1213 loadbang;
#X obj 1633 1411 *~;
#X msg 1551 1325 1;
#X msg 1613 1359 0;
#X text 1591 1175 AUDIO CLOCK OUTPUT;
#X text 1572 -235 MIDI note input;
#N canvas 254 22 1127 720 sine_midi 0;
#X obj 156 11 notein;
#X floatatom 127 58 5 0 0 0 - - -, f 5;
#X floatatom 168 58 5 0 0 0 - - -, f 5;
#X floatatom 206 58 5 0 0 0 - - -, f 5;
#X obj 471 85 stripnote;
#X obj 370 56 midiin;
#X obj 437 127 print midi:;
#X floatatom 933 513 5 0 0 0 - - -, f 5;
#X obj 934 486 min 1;
#X obj 940 654 s sine_midi;
#X obj 932 537 sel 1;
#X floatatom 807 544 5 0 0 0 - - -, f 5;
#X floatatom 852 546 5 0 0 0 - - -, f 5;
#X obj 839 496 sel 36;
#X obj 817 597 bng 15 250 50 0 empty empty empty 17 7 0 10 -262144
-1 -1;
#X msg 826 628 1;
#X obj 928 616 spigot;
#X msg 860 626 0;
#X obj 845 587 del 10;
#X text 12 111 if note = 36;
#X text 225 109 and gate = 1;
#X text 367 179 generate bang;
#X obj 109 113 sel 36;
#X obj 184 92 min 1;
#X obj 185 113 sel 1;
#X obj 74 159 bng 15 250 50 0 empty empty empty 17 7 0 10 -262144 -1
-1;
#X msg 252 218 0;
#X obj 149 418 s sine_midi;
#X obj 108 354 spigot;
#X msg 112 175 1;
#X floatatom 144 260 5 0 0 0 - - -, f 5;
#X msg 148 174 0;
#X obj 89 387 bng 15 250 50 0 empty empty empty 17 7 0 10 -262144 -1
-1;
#X obj 141 151 del 400;
#X msg 189 210 1;
#X connect 0 0 1 0;
#X connect 0 1 2 0;
#X connect 0 2 3 0;
#X connect 1 0 22 0;
#X connect 2 0 23 0;
#X connect 7 0 10 0;
#X connect 8 0 7 0;
#X connect 10 0 16 0;
#X connect 11 0 14 0;
#X connect 13 0 11 0;
#X connect 13 1 12 0;
#X connect 14 0 15 0;
#X connect 14 0 18 0;
#X connect 15 0 16 1;
#X connect 16 0 9 0;
#X connect 17 0 16 1;
#X connect 18 0 17 0;
#X connect 22 0 25 0;
#X connect 22 0 29 0;
#X connect 22 0 33 0;
#X connect 23 0 24 0;
#X connect 24 0 34 0;
#X connect 28 0 32 0;
#X connect 28 0 27 0;
#X connect 29 0 30 0;
#X connect 30 0 28 1;
#X connect 31 0 30 0;
#X connect 33 0 31 0;
#X connect 34 0 28 0;
#X restore 1607 -210 pd sine_midi;
#N canvas 13 22 1035 768 LFO1 0;
#X obj 44 727 s~ LFO1;
#X obj 493 4 r list1;
#X obj 885 150 route /lfo1amount;
#X obj 876 194 vsl 8 128 0 1 0 0 empty empty empty 0 -9 0 10 -262144
-1 -1 997 1;
#X obj 63 67 route /lfo1rate;
#X obj 52 139 + 0.1;
#X obj 52 102 * 50;
#X text 74 10 LFO 1;
#X obj 336 180 phasor~;
#X obj 271 180 phasor~;
#X obj 308 133 *~ -1;
#X obj 325 312 +~;
#X obj 356 217 *~ 2;
#X obj 359 251 -~ 1;
#X obj 272 217 *~ 2;
#X obj 275 251 -~ 1;
#X obj 272 284 clip~ 0 1;
#X obj 356 284 clip~ 0 1;
#X msg 372 149 0;
#X obj 363 124 loadbang;
#X obj 309 358 *~ 2;
#X text 393 204 triangle;
#X obj 149 220 phasor~ 400;
#X text 182 196 saw;
#X obj 540 195 phasor~ 200;
#X obj 545 240 expr~ $v1 > 0.5;
#X text 559 218 square wave;
#X obj 543 262 *~ 0.8;
#X obj 385 362 sel 0;
#X obj 308 425 *~;
#X floatatom 408 75 5 0 0 0 - - -, f 5;
#X obj 453 44 route /lfo1wave;
#X obj 464 78 s lfo1wave;
#X msg 359 396 1;
#X msg 405 393 0;
#X obj 380 333 r lfo1wave;
#X msg 129 374 1;
#X msg 175 371 0;
#X obj 150 311 r lfo1wave;
#X obj 68 421 *~;
#X obj 155 340 sel 1;
#X obj 497 406 *~;
#X msg 548 377 1;
#X msg 594 374 0;
#X obj 569 314 r lfo1wave;
#X obj 574 343 sel 2;
#X obj 686 259 noise~;
#X obj 646 401 *~;
#X msg 697 372 1;
#X msg 743 369 0;
#X obj 718 309 r lfo1wave;
#X obj 723 338 sel 3;
#X floatatom 879 453 5 0 0 0 - - -, f 5;
#X obj 45 621 *~;
#X obj 895 358 *~ 1000;
#X connect 1 0 2 0;
#X connect 1 0 4 0;
#X connect 1 0 31 0;
#X connect 2 0 3 0;
#X connect 3 0 52 0;
#X connect 3 0 54 0;
#X connect 4 0 6 0;
#X connect 5 0 9 0;
#X connect 5 0 10 0;
#X connect 5 0 22 0;
#X connect 5 0 24 0;
#X connect 6 0 5 0;
#X connect 8 0 12 0;
#X connect 9 0 14 0;
#X connect 10 0 8 0;
#X connect 11 0 20 0;
#X connect 12 0 13 0;
#X connect 13 0 17 0;
#X connect 14 0 15 0;
#X connect 15 0 16 0;
#X connect 16 0 11 0;
#X connect 17 0 11 1;
#X connect 18 0 9 1;
#X connect 18 0 8 1;
#X connect 18 0 22 1;
#X connect 18 0 24 1;
#X connect 19 0 18 0;
#X connect 20 0 29 0;
#X connect 22 0 39 0;
#X connect 24 0 25 0;
#X connect 25 0 27 0;
#X connect 27 0 41 0;
#X connect 28 0 33 0;
#X connect 28 1 34 0;
#X connect 29 0 53 0;
#X connect 31 0 30 0;
#X connect 31 0 32 0;
#X connect 33 0 29 1;
#X connect 34 0 29 1;
#X connect 35 0 28 0;
#X connect 36 0 39 1;
#X connect 37 0 39 1;
#X connect 38 0 40 0;
#X connect 39 0 53 0;
#X connect 40 0 36 0;
#X connect 40 1 37 0;
#X connect 41 0 53 0;
#X connect 42 0 41 1;
#X connect 43 0 41 1;
#X connect 44 0 45 0;
#X connect 45 0 42 0;
#X connect 45 1 43 0;
#X connect 46 0 47 0;
#X connect 47 0 53 0;
#X connect 48 0 47 1;
#X connect 49 0 47 1;
#X connect 50 0 51 0;
#X connect 51 0 48 0;
#X connect 51 1 49 0;
#X connect 53 0 0 0;
#X connect 54 0 53 1;
#X restore 1473 323 pd LFO1;
#N canvas 13 22 1035 768 LFO2 0;
#X obj 493 4 r list1;
#X obj 876 194 vsl 8 128 0 1 0 0 empty empty empty 0 -9 0 10 -262144
-1 -1 2179 1;
#X obj 52 139 + 0.1;
#X obj 52 102 * 50;
#X text 74 10 LFO 1;
#X obj 336 180 phasor~;
#X obj 271 180 phasor~;
#X obj 308 133 *~ -1;
#X obj 325 312 +~;
#X obj 356 217 *~ 2;
#X obj 359 251 -~ 1;
#X obj 272 217 *~ 2;
#X obj 275 251 -~ 1;
#X obj 272 284 clip~ 0 1;
#X obj 356 284 clip~ 0 1;
#X msg 372 149 0;
#X obj 363 124 loadbang;
#X obj 309 358 *~ 2;
#X text 393 204 triangle;
#X obj 149 220 phasor~ 400;
#X text 182 196 saw;
#X obj 540 195 phasor~ 200;
#X obj 545 240 expr~ $v1 > 0.5;
#X text 559 218 square wave;
#X obj 543 262 *~ 0.8;
#X obj 385 362 sel 0;
#X obj 308 425 *~;
#X floatatom 408 75 5 0 0 0 - - -, f 5;
#X msg 359 396 1;
#X msg 405 393 0;
#X msg 129 374 1;
#X msg 175 371 0;
#X obj 68 421 *~;
#X obj 155 340 sel 1;
#X obj 497 406 *~;
#X msg 548 377 1;
#X msg 594 374 0;
#X obj 574 343 sel 2;
#X obj 686 259 noise~;
#X obj 646 401 *~;
#X msg 697 372 1;
#X msg 743 369 0;
#X obj 723 338 sel 3;
#X floatatom 879 453 5 0 0 0 - - -, f 5;
#X obj 45 621 *~;
#X obj 895 358 *~ 1000;
#X obj 453 44 route /lfo2wave;
#X obj 464 78 s lfo2wave;
#X obj 63 67 route /lfo2rate;
#X obj 885 150 route /lfo2amount;
#X obj 150 311 r lfo2wave;
#X obj 380 333 r lfo2wave;
#X obj 569 314 r lfo2wave;
#X obj 718 309 r lfo2wave;
#X obj 44 727 s~ LFO2;
#X connect 0 0 46 0;
#X connect 0 0 48 0;
#X connect 0 0 49 0;
#X connect 1 0 43 0;
#X connect 1 0 45 0;
#X connect 2 0 6 0;
#X connect 2 0 7 0;
#X connect 2 0 19 0;
#X connect 2 0 21 0;
#X connect 3 0 2 0;
#X connect 5 0 9 0;
#X connect 6 0 11 0;
#X connect 7 0 5 0;
#X connect 8 0 17 0;
#X connect 9 0 10 0;
#X connect 10 0 14 0;
#X connect 11 0 12 0;
#X connect 12 0 13 0;
#X connect 13 0 8 0;
#X connect 14 0 8 1;
#X connect 15 0 6 1;
#X connect 15 0 5 1;
#X connect 15 0 19 1;
#X connect 15 0 21 1;
#X connect 16 0 15 0;
#X connect 17 0 26 0;
#X connect 19 0 32 0;
#X connect 21 0 22 0;
#X connect 22 0 24 0;
#X connect 24 0 34 0;
#X connect 25 0 28 0;
#X connect 25 1 29 0;
#X connect 26 0 44 0;
#X connect 28 0 26 1;
#X connect 29 0 26 1;
#X connect 30 0 32 1;
#X connect 31 0 32 1;
#X connect 32 0 44 0;
#X connect 33 0 30 0;
#X connect 33 1 31 0;
#X connect 34 0 44 0;
#X connect 35 0 34 1;
#X connect 36 0 34 1;
#X connect 37 0 35 0;
#X connect 37 1 36 0;
#X connect 38 0 39 0;
#X connect 39 0 44 0;
#X connect 40 0 39 1;
#X connect 41 0 39 1;
#X connect 42 0 40 0;
#X connect 42 1 41 0;
#X connect 44 0 54 0;
#X connect 45 0 44 1;
#X connect 46 0 27 0;
#X connect 46 0 47 0;
#X connect 48 0 3 0;
#X connect 49 0 1 0;
#X connect 50 0 33 0;
#X connect 51 0 25 0;
#X connect 52 0 37 0;
#X connect 53 0 42 0;
#X restore 1534 323 pd LFO2;
#N canvas 952 257 531 454 SH 0;
#X obj 233 355 s~ SH;
#X obj 252 274 *;
#X obj 339 103 vsl 15 128 0 1 0 0 empty empty empty 0 -9 0 10 -262144
-1 -1 300 1;
#X obj 198 102 metro 100;
#X obj 191 61 tgl 15 0 empty empty empty 17 7 0 10 -262144 -1 -1 1
1;
#X floatatom 183 224 5 0 0 0 - - -, f 5;
#X obj 228 180 random 10000;
#X floatatom 320 308 5 0 0 0 - - -, f 5;
#X obj 384 19 r list1;
#X obj 355 54 route /shrate;
#X obj 298 80 * 500;
#X obj 84 212 send toGUI;
#X msg 94 142 0;
#X msg 85 182 list /shtrig \$1;
#X msg 50 110 1;
#X obj 96 91 del 40;
#X obj 265 94 + 50;
#X connect 1 0 7 0;
#X connect 1 0 0 0;
#X connect 2 0 1 1;
#X connect 3 0 6 0;
#X connect 3 0 14 0;
#X connect 3 0 15 0;
#X connect 4 0 3 0;
#X connect 5 0 1 0;
#X connect 6 0 5 0;
#X connect 8 0 9 0;
#X connect 9 0 10 0;
#X connect 10 0 16 0;
#X connect 12 0 13 0;
#X connect 13 0 11 0;
#X connect 14 0 13 0;
#X connect 15 0 12 0;
#X connect 16 0 3 1;
#X restore 1650 321 pd SH;
#N canvas 42 22 1277 687 clock 0;
#X obj 483 188 bng 15 100 50 0 empty empty empty 17 7 0 10 -262144
-1 -1;
#X obj 187 57 midirealtimein;
#X obj 487 127 tgl 15 0 empty empty empty 17 7 0 10 -262144 -1 -1 0
1;
#X obj 483 101 route /seq1/clock;
#X obj 475 77 r list1;
#X obj 190 193 midi_clock_divider1;
#X text 467 49 INTERNAL CLOCK;
#X obj 481 156 metro 130;
#X obj 485 436 s clock;
#X obj 42 68 r list1;
#X obj 43 101 route /clock_source;
#X floatatom 77 192 5 0 0 0 - - -, f 5;
#X obj 292 312 spigot;
#X obj 309 287 tgl 15 0 empty empty empty 17 7 0 10 -262144 -1 -1 0
1;
#X obj 465 317 spigot;
#X msg 66 255 1;
#X msg 131 248 0;
#X floatatom 206 81 5 0 0 0 - - -, f 5;
#X obj 209 102 sel 248;
#X obj 211 154 send toGUI;
#X msg 203 125 list /seq1/clock 1;
#X obj 328 96 sel 252;
#X msg 332 123 list /seq1/clock 0;
#X obj 65 229 sel 0;
#X obj 515 227 sel 1;
#X msg 516 253 1;
#X obj 488 281 tgl 15 0 empty empty empty 17 7 0 10 -262144 -1 -1 1
1;
#X msg 548 253 0;
#X text 221 35 MIDI CLOCK;
#X obj 710 63 netreceive 6668;
#X floatatom 761 98 5 0 0 0 - - -, f 5;
#X obj 714 122 bng 15 250 50 0 empty empty empty 17 7 0 10 -262144
-1 -1;
#X obj 706 312 spigot;
#X obj 736 263 tgl 15 0 empty empty empty 17 7 0 10 -262144 -1 -1 0
1;
#X obj 730 205 sel 2;
#X msg 741 230 1;
#X msg 777 231 0;
#X text 712 39 NETWORK CLOCK;
#X obj 861 64 adc~;
#X obj 828 364 spigot;
#X obj 858 328 tgl 15 0 empty empty empty 17 7 0 10 -262144 -1 -1 0
1;
#X obj 45 130 s clocksource;
#X obj 75 160 r clocksource;
#X obj 507 197 r clocksource;
#X obj 723 178 r clocksource;
#X obj 851 201 r clocksource;
#X msg 854 258 1;
#X msg 892 263 0;
#X obj 860 232 sel 3;
#X text 22 44 GUI clock source chooser;
#X obj 904 168 bng 15 100 50 0 empty empty empty 17 7 0 10 -262144
-1 -1;
#X obj 841 98 *~ 20;
#X text 1050 120 1 trigger threshold;
#X text 1053 136 2 trigger debounce time;
#X text 1051 153 3 rest threshold;
#X text 1050 168 4 rest debounce time;
#X text 859 42 AUDIO CLOCK INPUT;
#X obj 836 135 threshold~ 8 50 0.1 20;
#X obj 959 293 send toGUI;
#X msg 953 224 list /audio_clock 1;
#X msg 1030 262 list /audio_clock 0;
#X obj 1084 226 del 100;
#X obj 649 60 r list1;
#X obj 619 93 route /int_clock_speed;
#X floatatom 618 125 5 0 0 0 - - -, f 5;
#X floatatom 632 204 5 0 0 0 - - -, f 5;
#X obj 615 163 * 1800;
#X msg 123 183 loadbang;
#X msg 123 211 1;
#X obj 52 310 t;
#X connect 0 0 14 0;
#X connect 1 0 5 0;
#X connect 1 0 17 0;
#X connect 2 0 7 0;
#X connect 3 0 2 0;
#X connect 4 0 3 0;
#X connect 5 0 12 0;
#X connect 7 0 0 0;
#X connect 9 0 10 0;
#X connect 10 0 41 0;
#X connect 11 0 23 0;
#X connect 12 0 8 0;
#X connect 13 0 12 1;
#X connect 14 0 8 0;
#X connect 15 0 13 0;
#X connect 16 0 13 0;
#X connect 17 0 18 0;
#X connect 17 0 21 0;
#X connect 18 0 20 0;
#X connect 20 0 19 0;
#X connect 21 0 22 0;
#X connect 22 0 19 0;
#X connect 23 0 15 0;
#X connect 23 1 16 0;
#X connect 24 0 25 0;
#X connect 24 1 27 0;
#X connect 25 0 26 0;
#X connect 26 0 14 1;
#X connect 27 0 26 0;
#X connect 29 0 31 0;
#X connect 31 0 32 0;
#X connect 32 0 8 0;
#X connect 33 0 32 1;
#X connect 34 0 35 0;
#X connect 34 1 36 0;
#X connect 35 0 33 0;
#X connect 36 0 33 0;
#X connect 38 0 51 0;
#X connect 39 0 8 0;
#X connect 40 0 39 1;
#X connect 42 0 11 0;
#X connect 43 0 24 0;
#X connect 44 0 34 0;
#X connect 45 0 48 0;
#X connect 46 0 40 0;
#X connect 47 0 40 0;
#X connect 48 0 46 0;
#X connect 48 1 47 0;
#X connect 50 0 39 0;
#X connect 50 0 59 0;
#X connect 50 0 61 0;
#X connect 51 0 57 0;
#X connect 57 0 50 0;
#X connect 59 0 58 0;
#X connect 60 0 58 0;
#X connect 61 0 60 0;
#X connect 62 0 63 0;
#X connect 63 0 64 0;
#X connect 64 0 66 0;
#X connect 65 0 7 1;
#X connect 66 0 65 0;
#X connect 67 0 68 0;
#X connect 68 0 23 0;
#X restore 205 -143 pd clock;
#X text 203 -193 CLOCK - various types of clocks and inputs;
#X text 206 -114 this is where the master clock is chosen and/or generated
;
#X text 1306 80 this is where the actual sounds are generated and modulated
;
#X text 1610 1193 generate an audio pulse for use with analog hardware
;
#X text 1067 1025 noise;
#X text 1278 1018 sine;
#X text 1499 977 fm;
#X text 1751 1014 bang;
#X text 1048 415 noise;
#X text 1247 414 sine;
#X text 1427 408 fm;
#X text 1648 407 bang;
#X text 1503 292 LFOs;
#X text 1608 300 Psuedo-sample&hold;
#X text 1070 208 white noise / digital noise w band pass filter;
#X text 1241 210 sine <-> square drum sound;
#X text 1381 203 fm oscillator carrier and modulator;
#X text 1586 207 sine <-> triangle drum sound;
#X obj 1589 1430 *~;
#X obj 1452 1260 r list1;
#X obj 1450 1284 route /clock_output;
#X floatatom 1430 1326 5 0 0 0 - - -, f 5;
#X text 695 1266 ROUTING;
#N canvas 0 22 1128 813 routing 0;
#X obj 55 351 s~ to_master_out_L;
#X obj 192 -21 r list1;
#X obj 192 3 route /matrix;
#X obj 192 144 route 0;
#X obj 194 242 route 0;
#X text 246 244 row 1;
#X obj 195 269 tgl 15 0 empty empty empty 17 7 0 10 -262144 -1 -1 1
1;
#X obj 191 171 s column0;
#X obj 190 210 r column0;
#X obj 195 355 tgl 15 0 empty empty empty 17 7 0 10 -262144 -1 -1 0
1;
#X obj 190 296 r column0;
#X obj 194 328 route 1;
#X text 246 330 row 2;
#X obj 195 447 tgl 15 0 empty empty empty 17 7 0 10 -262144 -1 -1 0
1;
#X obj 190 388 r column0;
#X text 246 422 row 3;
#X obj 194 420 route 2;
#X obj 195 533 tgl 15 0 empty empty empty 17 7 0 10 -262144 -1 -1 0
1;
#X obj 190 474 r column0;
#X obj 195 619 tgl 15 0 empty empty empty 17 7 0 10 -262144 -1 -1 1
1;
#X obj 190 560 r column0;
#X obj 195 711 tgl 15 0 empty empty empty 17 7 0 10 -262144 -1 -1 0
1;
#X obj 190 652 r column0;
#X text 246 508 row 4;
#X text 246 594 row 5;
#X text 246 686 row 6;
#X obj 194 506 route 3;
#X obj 194 592 route 4;
#X obj 194 684 route 5;
#X obj 193 800 tgl 15 0 empty empty empty 17 7 0 10 -262144 -1 -1 0
1;
#X obj 188 741 r column0;
#X obj 193 886 tgl 15 0 empty empty empty 17 7 0 10 -262144 -1 -1 0
1;
#X obj 188 827 r column0;
#X obj 193 978 tgl 15 0 empty empty empty 17 7 0 10 -262144 -1 -1 0
1;
#X obj 188 919 r column0;
#X obj 193 1064 tgl 15 0 empty empty empty 17 7 0 10 -262144 -1 -1
0 1;
#X obj 188 1005 r column0;
#X obj 193 1150 tgl 15 0 empty empty empty 17 7 0 10 -262144 -1 -1
0 1;
#X obj 188 1091 r column0;
#X obj 193 1242 tgl 15 0 empty empty empty 17 7 0 10 -262144 -1 -1
0 1;
#X obj 188 1183 r column0;
#X text 244 775 row 7;
#X text 244 861 row 8;
#X text 244 953 row 9;
#X text 244 1039 row 10;
#X text 244 1125 row 11;
#X text 244 1217 row 12;
#X obj 192 773 route 6;
#X obj 192 859 route 7;
#X obj 192 951 route 8;
#X obj 192 1037 route 9;
#X obj 192 1123 route 10;
#X obj 192 1215 route 11;
#X text 243 146 column 1;
#X text 204 87 OUT L;
#X obj 191 29 s matrix;
#X obj 192 113 r matrix;
#X obj 56 325 *~;
#X obj 45 220 r~ sine_out;
#X obj 53 244 *~;
#X obj 48 301 r~ noise_out;
#X obj 66 441 s~ to_master_out_L;
#X obj 67 415 *~;
#X obj 59 391 r~ fm_out;
#X obj 63 531 s~ to_master_out_L;
#X obj 64 505 *~;
#X obj 56 481 r~ bang_out;
#X obj 64 616 s~ to_master_out_L;
#X obj 65 590 *~;
#X obj 57 566 r~ LFO1_out;
#X obj 64 711 s~ to_master_out_L;
#X obj 65 685 *~;
#X obj 57 661 r~ LFO2_out;
#X obj 64 794 s~ to_master_out_L;
#X obj 65 768 *~;
#X obj 57 744 r~ ext_in_out;
#X obj 63 884 s~ to_master_out_L;
#X obj 64 858 *~;
#X obj 56 834 r~ clock_out;
#X obj 65 971 s~ to_master_out_L;
#X obj 66 945 *~;
#X obj 58 921 r~ cv_seq_out;
#X obj 70 1059 s~ to_master_out_L;
#X obj 71 1033 *~;
#X obj 63 1009 r~ random1_out;
#X obj 70 1145 s~ to_master_out_L;
#X obj 71 1119 *~;
#X obj 63 1095 r~ random2_out;
#X text 541 244 row 1;
#X obj 490 269 tgl 15 0 empty empty empty 17 7 0 10 -262144 -1 -1 1
1;
#X obj 490 355 tgl 15 0 empty empty empty 17 7 0 10 -262144 -1 -1 0
1;
#X obj 489 328 route 1;
#X text 541 330 row 2;
#X obj 490 447 tgl 15 0 empty empty empty 17 7 0 10 -262144 -1 -1 0
1;
#X text 541 422 row 3;
#X obj 489 420 route 2;
#X obj 490 533 tgl 15 0 empty empty empty 17 7 0 10 -262144 -1 -1 0
1;
#X obj 490 619 tgl 15 0 empty empty empty 17 7 0 10 -262144 -1 -1 1
1;
#X obj 490 711 tgl 15 0 empty empty empty 17 7 0 10 -262144 -1 -1 0
1;
#X text 541 508 row 4;
#X text 541 594 row 5;
#X text 541 686 row 6;
#X obj 489 506 route 3;
#X obj 489 592 route 4;
#X obj 489 684 route 5;
#X obj 488 800 tgl 15 0 empty empty empty 17 7 0 10 -262144 -1 -1 0
1;
#X obj 488 886 tgl 15 0 empty empty empty 17 7 0 10 -262144 -1 -1 0
1;
#X obj 488 978 tgl 15 0 empty empty empty 17 7 0 10 -262144 -1 -1 0
1;
#X obj 488 1064 tgl 15 0 empty empty empty 17 7 0 10 -262144 -1 -1
0 1;
#X obj 488 1150 tgl 15 0 empty empty empty 17 7 0 10 -262144 -1 -1
0 1;
#X obj 488 1242 tgl 15 0 empty empty empty 17 7 0 10 -262144 -1 -1
0 1;
#X text 539 775 row 7;
#X text 539 861 row 8;
#X text 539 953 row 9;
#X text 539 1039 row 10;
#X text 539 1125 row 11;
#X text 539 1217 row 12;
#X obj 487 773 route 6;
#X obj 487 859 route 7;
#X obj 487 951 route 8;
#X obj 487 1037 route 9;
#X obj 487 1123 route 10;
#X obj 487 1215 route 11;
#X obj 487 113 r matrix;
#X obj 351 325 *~;
#X obj 340 220 r~ sine_out;
#X obj 348 244 *~;
#X obj 343 301 r~ noise_out;
#X obj 362 415 *~;
#X obj 354 391 r~ fm_out;
#X obj 359 505 *~;
#X obj 351 481 r~ bang_out;
#X obj 360 590 *~;
#X obj 352 566 r~ LFO1_out;
#X obj 360 685 *~;
#X obj 352 661 r~ LFO2_out;
#X obj 360 768 *~;
#X obj 352 744 r~ ext_in_out;
#X obj 359 858 *~;
#X obj 351 834 r~ clock_out;
#X obj 361 945 *~;
#X obj 353 921 r~ cv_seq_out;
#X obj 366 1033 *~;
#X obj 358 1009 r~ random1_out;
#X obj 366 1119 *~;
#X obj 358 1095 r~ random2_out;
#X text 538 146 column 2;
#X text 503 86 OUT R;
#X obj 347 270 s~ to_master_out_R;
#X obj 350 351 s~ to_master_out_R;
#X obj 361 441 s~ to_master_out_R;
#X obj 487 144 route 1;
#X obj 358 531 s~ to_master_out_R;
#X obj 359 616 s~ to_master_out_R;
#X obj 359 711 s~ to_master_out_R;
#X obj 359 794 s~ to_master_out_R;
#X obj 358 884 s~ to_master_out_R;
#X obj 360 971 s~ to_master_out_R;
#X obj 365 1059 s~ to_master_out_R;
#X obj 365 1145 s~ to_master_out_R;
#X obj 485 210 r column1;
#X obj 486 171 s column1;
#X obj 489 242 route 0;
#X obj 485 296 r column1;
#X obj 485 388 r column1;
#X obj 485 474 r column1;
#X obj 485 560 r column1;
#X obj 485 652 r column1;
#X obj 483 741 r column1;
#X obj 483 827 r column1;
#X obj 483 919 r column1;
#X obj 483 1005 r column1;
#X obj 483 1091 r column1;
#X text 840 238 row 1;
#X obj 789 263 tgl 15 0 empty empty empty 17 7 0 10 -262144 -1 -1 0
1;
#X obj 789 349 tgl 15 0 empty empty empty 17 7 0 10 -262144 -1 -1 0
1;
#X obj 788 322 route 1;
#X text 840 324 row 2;
#X obj 789 441 tgl 15 0 empty empty empty 17 7 0 10 -262144 -1 -1 0
1;
#X text 840 416 row 3;
#X obj 788 414 route 2;
#X obj 789 527 tgl 15 0 empty empty empty 17 7 0 10 -262144 -1 -1 0
1;
#X obj 789 613 tgl 15 0 empty empty empty 17 7 0 10 -262144 -1 -1 0
1;
#X obj 789 705 tgl 15 0 empty empty empty 17 7 0 10 -262144 -1 -1 0
1;
#X text 840 502 row 4;
#X text 840 588 row 5;
#X text 840 680 row 6;
#X obj 788 500 route 3;
#X obj 788 586 route 4;
#X obj 788 678 route 5;
#X obj 787 794 tgl 15 0 empty empty empty 17 7 0 10 -262144 -1 -1 0
1;
#X obj 787 880 tgl 15 0 empty empty empty 17 7 0 10 -262144 -1 -1 0
1;
#X obj 787 972 tgl 15 0 empty empty empty 17 7 0 10 -262144 -1 -1 0
1;
#X obj 787 1058 tgl 15 0 empty empty empty 17 7 0 10 -262144 -1 -1
0 1;
#X obj 787 1144 tgl 15 0 empty empty empty 17 7 0 10 -262144 -1 -1
0 1;
#X obj 787 1236 tgl 15 0 empty empty empty 17 7 0 10 -262144 -1 -1
0 1;
#X text 838 769 row 7;
#X text 838 855 row 8;
#X text 838 947 row 9;
#X text 838 1033 row 10;
#X text 838 1119 row 11;
#X text 838 1211 row 12;
#X obj 786 767 route 6;
#X obj 786 853 route 7;
#X obj 786 945 route 8;
#X obj 786 1031 route 9;
#X obj 786 1117 route 10;
#X obj 786 1209 route 11;
#X obj 786 107 r matrix;
#X obj 650 319 *~;
#X obj 639 214 r~ sine_out;
#X obj 647 238 *~;
#X obj 642 295 r~ noise_out;
#X obj 661 409 *~;
#X obj 653 385 r~ fm_out;
#X obj 658 499 *~;
#X obj 650 475 r~ bang_out;
#X obj 659 584 *~;
#X obj 651 560 r~ LFO1_out;
#X obj 659 679 *~;
#X obj 651 655 r~ LFO2_out;
#X obj 659 762 *~;
#X obj 651 738 r~ ext_in_out;
#X obj 658 852 *~;
#X obj 650 828 r~ clock_out;
#X obj 660 939 *~;
#X obj 652 915 r~ cv_seq_out;
#X obj 665 1027 *~;
#X obj 657 1003 r~ random1_out;
#X obj 665 1113 *~;
#X obj 657 1089 r~ random2_out;
#X obj 657 525 s~ to_master_out_R;
#X obj 658 610 s~ to_master_out_R;
#X obj 658 705 s~ to_master_out_R;
#X obj 658 788 s~ to_master_out_R;
#X obj 657 878 s~ to_master_out_R;
#X obj 659 965 s~ to_master_out_R;
#X obj 664 1053 s~ to_master_out_R;
#X obj 664 1139 s~ to_master_out_R;
#X obj 788 236 route 0;
#X text 802 80 SINE FM;
#X obj 786 138 route 2;
#X text 837 140 column 3;
#X obj 785 165 s column2;
#X obj 784 204 r column2;
#X obj 784 290 r column2;
#X obj 784 382 r column2;
#X obj 784 468 r column2;
#X obj 784 554 r column2;
#X obj 784 646 r column2;
#X obj 782 735 r column2;
#X obj 782 821 r column2;
#X obj 782 913 r column2;
#X obj 782 999 r column2;
#X obj 782 1085 r column2;
#X obj 782 1177 r column2;
#X obj 483 1183 r column1;
#X obj 646 264 s~ sine_fm;
#X obj 649 345 s~ sine_fm;
#X obj 660 435 s~ sine_fm;
#X obj 139 183 dac~;
#X obj 49 269 s~ to_master_out_L;
#X connect 1 0 2 0;
#X connect 2 0 55 0;
#X connect 3 0 7 0;
#X connect 4 0 6 0;
#X connect 6 0 59 1;
#X connect 8 0 4 0;
#X connect 9 0 57 1;
#X connect 10 0 11 0;
#X connect 11 0 9 0;
#X connect 13 0 62 1;
#X connect 14 0 16 0;
#X connect 16 0 13 0;
#X connect 17 0 65 1;
#X connect 18 0 26 0;
#X connect 19 0 68 1;
#X connect 20 0 27 0;
#X connect 21 0 71 1;
#X connect 22 0 28 0;
#X connect 26 0 17 0;
#X connect 27 0 19 0;
#X connect 28 0 21 0;
#X connect 29 0 74 1;
#X connect 30 0 47 0;
#X connect 31 0 77 1;
#X connect 32 0 48 0;
#X connect 33 0 80 1;
#X connect 34 0 49 0;
#X connect 35 0 83 1;
#X connect 36 0 50 0;
#X connect 37 0 86 1;
#X connect 38 0 51 0;
#X connect 40 0 52 0;
#X connect 47 0 29 0;
#X connect 48 0 31 0;
#X connect 49 0 33 0;
#X connect 50 0 35 0;
#X connect 51 0 37 0;
#X connect 52 0 39 0;
#X connect 56 0 3 0;
#X connect 57 0 0 0;
#X connect 58 0 59 0;
#X connect 59 0 261 0;
#X connect 60 0 57 0;
#X connect 62 0 61 0;
#X connect 63 0 62 0;
#X connect 65 0 64 0;
#X connect 66 0 65 0;
#X connect 68 0 67 0;
#X connect 69 0 68 0;
#X connect 71 0 70 0;
#X connect 72 0 71 0;
#X connect 74 0 73 0;
#X connect 75 0 74 0;
#X connect 77 0 76 0;
#X connect 78 0 77 0;
#X connect 80 0 79 0;
#X connect 81 0 80 0;
#X connect 83 0 82 0;
#X connect 84 0 83 0;
#X connect 86 0 85 0;
#X connect 87 0 86 0;
#X connect 89 0 126 1;
#X connect 90 0 124 1;
#X connect 91 0 90 0;
#X connect 93 0 128 1;
#X connect 95 0 93 0;
#X connect 96 0 130 1;
#X connect 97 0 132 1;
#X connect 98 0 134 1;
#X connect 102 0 96 0;
#X connect 103 0 97 0;
#X connect 104 0 98 0;
#X connect 105 0 136 1;
#X connect 106 0 138 1;
#X connect 107 0 140 1;
#X connect 108 0 142 1;
#X connect 109 0 144 1;
#X connect 117 0 105 0;
#X connect 118 0 106 0;
#X connect 119 0 107 0;
#X connect 120 0 108 0;
#X connect 121 0 109 0;
#X connect 122 0 110 0;
#X connect 123 0 151 0;
#X connect 124 0 149 0;
#X connect 125 0 126 0;
#X connect 126 0 148 0;
#X connect 127 0 124 0;
#X connect 128 0 150 0;
#X connect 129 0 128 0;
#X connect 130 0 152 0;
#X connect 131 0 130 0;
#X connect 132 0 153 0;
#X connect 133 0 132 0;
#X connect 134 0 154 0;
#X connect 135 0 134 0;
#X connect 136 0 155 0;
#X connect 137 0 136 0;
#X connect 138 0 156 0;
#X connect 139 0 138 0;
#X connect 140 0 157 0;
#X connect 141 0 140 0;
#X connect 142 0 158 0;
#X connect 143 0 142 0;
#X connect 144 0 159 0;
#X connect 145 0 144 0;
#X connect 151 0 161 0;
#X connect 160 0 162 0;
#X connect 162 0 89 0;
#X connect 163 0 91 0;
#X connect 164 0 95 0;
#X connect 165 0 102 0;
#X connect 166 0 103 0;
#X connect 167 0 104 0;
#X connect 168 0 117 0;
#X connect 169 0 118 0;
#X connect 170 0 119 0;
#X connect 171 0 120 0;
#X connect 172 0 121 0;
#X connect 174 0 211 1;
#X connect 175 0 209 1;
#X connect 176 0 175 0;
#X connect 178 0 213 1;
#X connect 180 0 178 0;
#X connect 181 0 215 1;
#X connect 182 0 217 1;
#X connect 183 0 219 1;
#X connect 187 0 181 0;
#X connect 188 0 182 0;
#X connect 189 0 183 0;
#X connect 190 0 221 1;
#X connect 191 0 223 1;
#X connect 192 0 225 1;
#X connect 193 0 227 1;
#X connect 194 0 229 1;
#X connect 202 0 190 0;
#X connect 203 0 191 0;
#X connect 204 0 192 0;
#X connect 205 0 193 0;
#X connect 206 0 194 0;
#X connect 207 0 195 0;
#X connect 208 0 241 0;
#X connect 209 0 258 0;
#X connect 210 0 211 0;
#X connect 211 0 257 0;
#X connect 212 0 209 0;
#X connect 213 0 259 0;
#X connect 214 0 213 0;
#X connect 215 0 231 0;
#X connect 216 0 215 0;
#X connect 217 0 232 0;
#X connect 218 0 217 0;
#X connect 219 0 233 0;
#X connect 220 0 219 0;
#X connect 221 0 234 0;
#X connect 222 0 221 0;
#X connect 223 0 235 0;
#X connect 224 0 223 0;
#X connect 225 0 236 0;
#X connect 226 0 225 0;
#X connect 227 0 237 0;
#X connect 228 0 227 0;
#X connect 229 0 238 0;
#X connect 230 0 229 0;
#X connect 239 0 174 0;
#X connect 241 0 243 0;
#X connect 244 0 239 0;
#X connect 245 0 176 0;
#X connect 246 0 180 0;
#X connect 247 0 187 0;
#X connect 248 0 188 0;
#X connect 249 0 189 0;
#X connect 250 0 202 0;
#X connect 251 0 203 0;
#X connect 252 0 204 0;
#X connect 253 0 205 0;
#X connect 254 0 206 0;
#X connect 255 0 207 0;
#X connect 256 0 122 0;
#X restore 688 1291 pd routing;
#X obj 1166 1268 *~;
#X obj 1086 1067 s~ noise_out;
#X obj 1317 1059 s~ sine_out;
#X obj 1527 1036 s~ fm_out;
#X obj 1777 1061 s~ bang_out;
#X obj 1690 1332 sig~ 1;
#X obj 1592 1325 del 2;
#X connect 0 0 1 0;
#X connect 0 0 2 0;
#X connect 1 0 0 1;
#X connect 2 0 69 0;
#X connect 2 0 77 0;
#X connect 2 0 91 0;
#X connect 3 0 4 0;
#X connect 4 0 5 0;
#X connect 4 0 111 0;
#X connect 4 0 218 0;
#X connect 4 0 327 0;
#X connect 4 1 8 0;
#X connect 4 1 113 0;
#X connect 4 1 220 0;
#X connect 4 1 329 0;
#X connect 4 2 11 0;
#X connect 4 2 115 0;
#X connect 4 2 222 0;
#X connect 4 2 331 0;
#X connect 4 3 14 0;
#X connect 4 3 117 0;
#X connect 4 3 224 0;
#X connect 4 3 333 0;
#X connect 4 4 20 0;
#X connect 4 4 119 0;
#X connect 4 4 226 0;
#X connect 4 4 335 0;
#X connect 4 5 23 0;
#X connect 4 5 121 0;
#X connect 4 5 228 0;
#X connect 4 5 337 0;
#X connect 4 6 26 0;
#X connect 4 6 123 0;
#X connect 4 6 230 0;
#X connect 4 6 339 0;
#X connect 4 7 29 0;
#X connect 4 7 125 0;
#X connect 4 7 232 0;
#X connect 4 7 341 0;
#X connect 4 8 36 0;
#X connect 4 8 127 0;
#X connect 4 8 234 0;
#X connect 4 8 343 0;
#X connect 4 9 39 0;
#X connect 4 9 129 0;
#X connect 4 9 236 0;
#X connect 4 9 345 0;
#X connect 4 10 42 0;
#X connect 4 10 131 0;
#X connect 4 10 238 0;
#X connect 4 10 347 0;
#X connect 4 10 349 0;
#X connect 4 11 45 0;
#X connect 4 11 133 0;
#X connect 4 11 240 0;
#X connect 4 11 351 0;
#X connect 4 12 48 0;
#X connect 4 12 135 0;
#X connect 4 12 242 0;
#X connect 4 13 51 0;
#X connect 4 13 137 0;
#X connect 4 13 244 0;
#X connect 4 13 353 0;
#X connect 4 14 54 0;
#X connect 4 14 139 0;
#X connect 4 14 246 0;
#X connect 4 14 355 0;
#X connect 4 15 57 0;
#X connect 4 15 141 0;
#X connect 4 15 248 0;
#X connect 4 15 357 0;
#X connect 5 0 160 0;
#X connect 6 0 7 0;
#X connect 7 0 5 1;
#X connect 8 0 10 0;
#X connect 9 0 8 1;
#X connect 11 0 13 0;
#X connect 12 0 11 1;
#X connect 14 0 16 0;
#X connect 15 0 14 1;
#X connect 17 0 9 0;
#X connect 18 0 12 0;
#X connect 19 0 15 0;
#X connect 20 0 22 0;
#X connect 21 0 20 1;
#X connect 23 0 25 0;
#X connect 24 0 23 1;
#X connect 26 0 28 0;
#X connect 27 0 26 1;
#X connect 29 0 31 0;
#X connect 30 0 29 1;
#X connect 32 0 21 0;
#X connect 33 0 24 0;
#X connect 34 0 27 0;
#X connect 35 0 30 0;
#X connect 36 0 38 0;
#X connect 37 0 36 1;
#X connect 39 0 41 0;
#X connect 40 0 39 1;
#X connect 42 0 44 0;
#X connect 43 0 42 1;
#X connect 45 0 47 0;
#X connect 46 0 45 1;
#X connect 48 0 50 0;
#X connect 49 0 48 1;
#X connect 51 0 53 0;
#X connect 52 0 51 1;
#X connect 54 0 56 0;
#X connect 55 0 54 1;
#X connect 57 0 59 0;
#X connect 58 0 57 1;
#X connect 60 0 37 0;
#X connect 61 0 40 0;
#X connect 62 0 43 0;
#X connect 63 0 46 0;
#X connect 64 0 49 0;
#X connect 65 0 52 0;
#X connect 66 0 55 0;
#X connect 67 0 58 0;
#X connect 69 0 3 0;
#X connect 70 0 2 1;
#X connect 73 0 104 1;
#X connect 74 0 73 1;
#X connect 76 0 77 0;
#X connect 77 0 75 0;
#X connect 78 0 79 0;
#X connect 79 0 216 0;
#X connect 81 0 85 0;
#X connect 82 0 85 0;
#X connect 83 0 85 0;
#X connect 84 0 85 0;
#X connect 86 0 80 0;
#X connect 88 0 87 0;
#X connect 89 0 87 0;
#X connect 90 0 93 0;
#X connect 90 0 88 0;
#X connect 92 0 90 0;
#X connect 93 0 94 0;
#X connect 94 0 89 0;
#X connect 94 0 95 0;
#X connect 95 0 96 0;
#X connect 96 0 87 0;
#X connect 98 0 73 0;
#X connect 100 0 0 0;
#X connect 104 0 180 1;
#X connect 105 0 104 0;
#X connect 106 0 107 1;
#X connect 107 0 181 1;
#X connect 108 0 107 0;
#X connect 109 0 106 0;
#X connect 110 0 106 1;
#X connect 111 0 161 0;
#X connect 112 0 111 1;
#X connect 113 0 162 0;
#X connect 114 0 113 1;
#X connect 115 0 163 0;
#X connect 116 0 115 1;
#X connect 117 0 164 0;
#X connect 118 0 117 1;
#X connect 119 0 165 0;
#X connect 120 0 119 1;
#X connect 121 0 166 0;
#X connect 122 0 121 1;
#X connect 123 0 167 0;
#X connect 124 0 123 1;
#X connect 125 0 168 0;
#X connect 126 0 125 1;
#X connect 127 0 169 0;
#X connect 128 0 127 1;
#X connect 129 0 170 0;
#X connect 130 0 129 1;
#X connect 131 0 171 0;
#X connect 132 0 131 1;
#X connect 133 0 172 0;
#X connect 134 0 133 1;
#X connect 135 0 173 0;
#X connect 136 0 135 1;
#X connect 137 0 174 0;
#X connect 138 0 137 1;
#X connect 139 0 175 0;
#X connect 140 0 139 1;
#X connect 141 0 176 0;
#X connect 142 0 141 1;
#X connect 144 0 112 0;
#X connect 145 0 114 0;
#X connect 146 0 116 0;
#X connect 147 0 118 0;
#X connect 148 0 120 0;
#X connect 149 0 122 0;
#X connect 150 0 124 0;
#X connect 151 0 126 0;
#X connect 152 0 128 0;
#X connect 153 0 130 0;
#X connect 154 0 132 0;
#X connect 155 0 134 0;
#X connect 156 0 136 0;
#X connect 157 0 138 0;
#X connect 158 0 140 0;
#X connect 159 0 142 0;
#X connect 177 0 436 0;
#X connect 178 0 179 0;
#X connect 179 0 196 0;
#X connect 180 0 437 0;
#X connect 180 0 436 1;
#X connect 181 0 438 0;
#X connect 181 0 436 1;
#X connect 182 0 183 0;
#X connect 183 0 306 0;
#X connect 184 0 284 0;
#X connect 185 0 186 0;
#X connect 186 0 187 0;
#X connect 186 0 188 0;
#X connect 194 0 195 0;
#X connect 195 0 70 0;
#X connect 196 0 200 0;
#X connect 196 0 201 0;
#X connect 197 0 180 0;
#X connect 198 0 197 0;
#X connect 199 0 197 0;
#X connect 200 0 198 0;
#X connect 201 0 199 0;
#X connect 202 0 208 0;
#X connect 203 0 206 0;
#X connect 203 0 207 0;
#X connect 204 0 209 0;
#X connect 205 0 209 0;
#X connect 206 0 204 0;
#X connect 207 0 205 0;
#X connect 208 0 203 0;
#X connect 209 0 181 0;
#X connect 210 0 303 0;
#X connect 211 0 108 0;
#X connect 212 0 211 0;
#X connect 213 0 177 0;
#X connect 214 0 213 0;
#X connect 215 0 216 0;
#X connect 216 0 0 0;
#X connect 218 0 265 0;
#X connect 219 0 218 1;
#X connect 220 0 266 0;
#X connect 221 0 220 1;
#X connect 222 0 267 0;
#X connect 223 0 222 1;
#X connect 224 0 268 0;
#X connect 225 0 224 1;
#X connect 226 0 269 0;
#X connect 227 0 226 1;
#X connect 228 0 270 0;
#X connect 229 0 228 1;
#X connect 230 0 271 0;
#X connect 231 0 230 1;
#X connect 232 0 272 0;
#X connect 233 0 232 1;
#X connect 234 0 273 0;
#X connect 235 0 234 1;
#X connect 236 0 274 0;
#X connect 237 0 236 1;
#X connect 238 0 275 0;
#X connect 239 0 238 1;
#X connect 240 0 276 0;
#X connect 241 0 240 1;
#X connect 242 0 277 0;
#X connect 243 0 242 1;
#X connect 244 0 278 0;
#X connect 245 0 244 1;
#X connect 246 0 279 0;
#X connect 247 0 246 1;
#X connect 248 0 280 0;
#X connect 249 0 248 1;
#X connect 250 0 219 0;
#X connect 251 0 223 0;
#X connect 252 0 225 0;
#X connect 253 0 227 0;
#X connect 254 0 229 0;
#X connect 255 0 231 0;
#X connect 256 0 233 0;
#X connect 257 0 235 0;
#X connect 258 0 237 0;
#X connect 259 0 239 0;
#X connect 260 0 241 0;
#X connect 261 0 243 0;
#X connect 262 0 245 0;
#X connect 263 0 247 0;
#X connect 264 0 249 0;
#X connect 284 0 108 0;
#X connect 285 0 286 1;
#X connect 286 0 288 1;
#X connect 287 0 286 0;
#X connect 288 0 439 0;
#X connect 288 0 436 1;
#X connect 289 0 301 0;
#X connect 290 0 298 0;
#X connect 291 0 294 0;
#X connect 291 0 295 0;
#X connect 292 0 296 0;
#X connect 293 0 296 0;
#X connect 294 0 292 0;
#X connect 295 0 293 0;
#X connect 296 0 288 0;
#X connect 297 0 304 0;
#X connect 298 0 291 0;
#X connect 299 0 285 0;
#X connect 300 0 285 1;
#X connect 301 0 305 0;
#X connect 302 0 221 0;
#X connect 303 0 105 0;
#X connect 304 0 287 0;
#X connect 305 0 287 0;
#X connect 306 0 105 0;
#X connect 309 0 310 1;
#X connect 310 0 312 1;
#X connect 311 0 310 0;
#X connect 312 0 440 0;
#X connect 312 0 436 1;
#X connect 313 0 323 0;
#X connect 314 0 325 0;
#X connect 315 0 318 0;
#X connect 315 0 319 0;
#X connect 316 0 320 0;
#X connect 317 0 320 0;
#X connect 318 0 316 0;
#X connect 319 0 317 0;
#X connect 320 0 312 0;
#X connect 321 0 311 0;
#X connect 322 0 321 0;
#X connect 323 0 311 0;
#X connect 324 0 309 0;
#X connect 325 0 315 0;
#X connect 326 0 309 1;
#X connect 327 0 361 0;
#X connect 328 0 327 1;
#X connect 329 0 362 0;
#X connect 330 0 329 1;
#X connect 331 0 363 0;
#X connect 332 0 331 1;
#X connect 333 0 364 0;
#X connect 334 0 333 1;
#X connect 335 0 365 0;
#X connect 336 0 335 1;
#X connect 337 0 366 0;
#X connect 338 0 337 1;
#X connect 339 0 367 0;
#X connect 340 0 339 1;
#X connect 341 0 368 0;
#X connect 342 0 341 1;
#X connect 343 0 369 0;
#X connect 344 0 343 1;
#X connect 345 0 370 0;
#X connect 346 0 345 1;
#X connect 347 0 371 0;
#X connect 348 0 347 1;
#X connect 349 0 372 0;
#X connect 350 0 349 1;
#X connect 351 0 373 0;
#X connect 352 0 351 1;
#X connect 353 0 374 0;
#X connect 354 0 353 1;
#X connect 355 0 375 0;
#X connect 356 0 355 1;
#X connect 357 0 376 0;
#X connect 358 0 357 1;
#X connect 377 0 328 0;
#X connect 378 0 330 0;
#X connect 379 0 332 0;
#X connect 380 0 334 0;
#X connect 381 0 336 0;
#X connect 382 0 338 0;
#X connect 383 0 340 0;
#X connect 384 0 342 0;
#X connect 385 0 344 0;
#X connect 386 0 346 0;
#X connect 387 0 348 0;
#X connect 388 0 350 0;
#X connect 389 0 352 0;
#X connect 390 0 354 0;
#X connect 391 0 356 0;
#X connect 392 0 358 0;
#X connect 393 0 394 0;
#X connect 394 0 177 0;
#X connect 395 0 198 0;
#X connect 396 0 204 0;
#X connect 397 0 292 0;
#X connect 398 0 316 0;
#X connect 399 0 400 0;
#X connect 400 0 403 0;
#X connect 400 0 442 0;
#X connect 402 0 430 1;
#X connect 403 0 402 0;
#X connect 404 0 402 0;
#X connect 430 0 72 1;
#X connect 431 0 432 0;
#X connect 432 0 433 0;
#X connect 432 0 430 0;
#X connect 436 0 72 0;
#X connect 441 0 402 1;
#X connect 442 0 404 0;
